<svg width="1440" height="247" viewBox="0 0 1440 247" fill="none" xmlns="http://www.w3.org/2000/svg">
<path d="M2028.21 0.542418L-157.196 116.771L-150.288 246.671L2035.12 130.443L2028.21 0.542418Z" fill="#FF693B"/>
<path d="M600.736 152.996C606.701 152.996 611.536 148.161 611.536 142.196C611.536 136.232 606.701 131.396 600.736 131.396C594.772 131.396 589.937 136.232 589.937 142.196C589.937 148.161 594.772 152.996 600.736 152.996Z" fill="#F2F2F2"/>
<path d="M1290.15 116.86C1296.11 116.86 1300.95 112.025 1300.95 106.06C1300.95 100.096 1296.11 95.2607 1290.15 95.2607C1284.18 95.2607 1279.35 100.096 1279.35 106.06C1279.35 112.025 1284.18 116.86 1290.15 116.86Z" fill="#F2F2F2"/>
<path d="M-41.3244 178.195C-41.8388 168.187 -34.4289 159.975 -24.1766 159.448C-14.9007 158.971 -10.2309 164.115 -10.2309 164.115L-15.6126 173.692C-15.6126 173.692 -18.6798 171.158 -22.0973 171.333C-25.5147 171.509 -27.8303 174.076 -27.6547 177.493C-27.479 180.91 -24.9125 183.226 -21.4951 183.05C-18.0777 182.875 -15.2864 180.039 -15.2864 180.039L-8.95122 189.014C-8.95122 189.014 -13.0691 194.61 -22.345 195.087C-32.5973 195.614 -40.8101 188.204 -41.3244 178.195Z" fill="white"/>
<path d="M6.12787 158.624L6.73005 170.341L14.5413 169.94L13.9392 158.223L26.6325 157.571L28.3889 191.745L15.6955 192.397L15.0933 180.68L7.28205 181.082L7.88423 192.799L-4.80912 193.451L-6.56548 159.277L6.12787 158.624Z" fill="white"/>
<path d="M56.7935 173.153C56.6179 169.735 54.0514 167.42 51.1221 167.57C48.1929 167.721 45.8773 170.287 46.053 173.705C46.2286 177.122 48.7951 179.438 51.7243 179.287C54.6536 179.137 56.9691 176.57 56.7935 173.153ZM70.4633 172.45C70.9776 182.458 63.5678 190.671 52.3391 191.248C41.1103 191.825 32.8976 184.416 32.3832 174.407C31.8688 164.399 39.2787 156.186 50.5074 155.609C61.7362 155.032 69.9489 162.442 70.4633 172.45Z" fill="white"/>
<path d="M98.7963 170.994C98.6207 167.577 96.0542 165.261 93.125 165.412C90.1958 165.562 87.8802 168.129 88.0558 171.546C88.2315 174.964 90.798 177.279 93.7272 177.129C96.6564 176.978 98.972 174.412 98.7963 170.994ZM112.466 170.292C112.98 180.3 105.571 188.513 94.3419 189.09C83.1132 189.667 74.9004 182.257 74.3861 172.249C73.8717 162.24 81.2815 154.028 92.5103 153.451C103.739 152.874 111.952 160.283 112.466 170.292Z" fill="white"/>
<path d="M128.263 177.312C129.484 177.249 130.178 176.479 130.141 175.747C130.015 173.306 116.834 173.983 116.282 163.243C115.993 157.628 121.087 151.982 129.631 151.543C138.419 151.091 143.089 156.236 143.089 156.236L138.827 163.797C138.827 163.797 135.76 161.262 132.342 161.438C131.122 161.501 130.427 162.271 130.465 163.003C130.59 165.444 143.772 164.767 144.324 175.507C144.612 181.122 139.518 186.768 130.975 187.207C120.234 187.759 115.539 182.126 115.539 182.126L119.801 174.565C119.801 174.565 123.381 177.563 128.263 177.312Z" fill="white"/>
<path d="M160.822 172.701L160.948 175.142L175.594 174.39L176.096 184.154L148.756 185.559L147 151.384L173.363 150.029L173.865 159.794L160.195 160.496L160.321 162.937L173.014 162.285L173.516 172.049L160.822 172.701Z" fill="white"/>
<path d="M199.267 148.698L203.186 158.287L206.102 148.347L220.748 147.594L210.11 169.189L210.787 182.371L198.094 183.023L197.416 169.842L184.62 149.451L199.267 148.698Z" fill="white"/>
<path d="M245.067 163.477C244.892 160.059 242.325 157.744 239.396 157.894C236.467 158.045 234.151 160.611 234.327 164.029C234.502 167.446 237.069 169.762 239.998 169.611C242.927 169.461 245.243 166.894 245.067 163.477ZM258.737 162.774C259.252 172.782 251.842 180.995 240.613 181.572C229.384 182.149 221.171 174.739 220.657 164.731C220.143 154.723 227.553 146.51 238.781 145.933C250.01 145.356 258.223 152.766 258.737 162.774Z" fill="white"/>
<path d="M280.524 167.284C282.721 167.171 284.342 165.374 284.204 162.689L283.263 144.381L295.956 143.729L296.897 162.037C297.399 171.801 290.915 178.987 281.151 179.489C271.387 179.991 264.201 173.507 263.699 163.743L262.758 145.435L275.452 144.783L276.392 163.09C276.53 165.776 278.327 167.397 280.524 167.284Z" fill="white"/>
<path d="M337.248 175.871L322.602 176.624L316.166 165.697L315.678 165.722L316.255 176.95L303.561 177.603L301.805 143.428C301.805 143.428 308.615 142.589 315.938 142.212C326.679 141.66 331.811 146.292 332.175 153.371C332.539 160.45 328.271 163.116 328.271 163.116L337.248 175.871ZM315.226 156.934L316.691 156.859C318.399 156.771 319.557 155.488 319.482 154.023C319.407 152.558 318.123 151.401 316.415 151.488L314.95 151.564L315.226 156.934Z" fill="white"/>
<path d="M347.241 141.093L372.627 139.788L373.179 150.529L360.486 151.181L360.687 155.087L370.939 154.56L371.441 164.324L361.189 164.851L361.69 174.615L348.997 175.268L347.241 141.093Z" fill="white"/>
<path d="M389.207 138.936L390.964 173.111L378.27 173.763L376.514 139.589L389.207 138.936Z" fill="white"/>
<path d="M414.791 160.628C415.279 160.603 415.768 160.578 415.768 160.578L415.466 154.719L427.183 154.117L427.798 166.078C427.798 166.078 423.705 172.162 413.941 172.664C403.689 173.191 395.476 165.781 394.962 155.773C394.447 145.765 401.857 137.552 412.11 137.025C421.385 136.548 426.055 141.693 426.055 141.693L420.674 151.27C420.674 151.27 417.606 148.735 414.189 148.911C410.772 149.087 408.456 151.653 408.632 155.07C408.807 158.488 411.374 160.803 414.791 160.628Z" fill="white"/>
<path d="M443.892 136.126L444.494 147.843L452.306 147.441L451.703 135.724L464.397 135.072L466.153 169.247L453.46 169.899L452.858 158.182L445.046 158.583L445.648 170.3L432.955 170.953L431.199 136.778L443.892 136.126Z" fill="white"/>
<path d="M468.293 134.872L499.538 133.266L500.115 144.495L490.839 144.972L492.018 167.917L479.325 168.57L478.146 145.624L468.87 146.101L468.293 134.872Z" fill="white"/>
<path d="M517.251 154.383L517.376 156.824L532.022 156.071L532.524 165.835L505.185 167.241L503.428 133.066L529.791 131.711L530.293 141.475L516.624 142.178L516.749 144.619L529.442 143.967L529.944 153.731L517.251 154.383Z" fill="white"/>
<path d="M570.623 163.877L555.977 164.63L549.542 153.702L549.053 153.728L549.63 164.956L536.937 165.609L535.181 131.434C535.181 131.434 541.991 130.595 549.314 130.218C560.054 129.666 565.187 134.298 565.551 141.377C565.915 148.455 561.646 151.122 561.646 151.122L570.623 163.877ZM548.602 144.94L550.066 144.865C551.775 144.777 552.933 143.493 552.858 142.029C552.782 140.564 551.499 139.406 549.79 139.494L548.326 139.57L548.602 144.94Z" fill="white"/>
<path d="M639.2 141.825C638.686 131.817 646.095 123.604 656.348 123.077C665.624 122.601 670.294 127.745 670.294 127.745L664.912 137.322C664.912 137.322 661.845 134.788 658.427 134.963C655.01 135.139 652.694 137.705 652.87 141.123C653.045 144.54 655.612 146.856 659.029 146.68C662.447 146.505 665.238 143.669 665.238 143.669L671.573 152.644C671.573 152.644 667.455 158.24 658.179 158.717C647.927 159.243 639.714 151.834 639.2 141.825Z" fill="white"/>
<path d="M686.652 122.254L687.254 133.971L695.066 133.57L694.464 121.853L707.157 121.2L708.913 155.375L696.22 156.027L695.618 144.31L687.806 144.712L688.409 156.429L675.715 157.081L673.959 122.907L686.652 122.254Z" fill="white"/>
<path d="M737.318 136.783C737.142 133.365 734.576 131.05 731.647 131.2C728.717 131.351 726.402 133.917 726.577 137.335C726.753 140.752 729.32 143.068 732.249 142.917C735.178 142.767 737.494 140.2 737.318 136.783ZM750.988 136.08C751.502 146.088 744.092 154.301 732.863 154.878C721.635 155.455 713.422 148.045 712.908 138.037C712.393 128.029 719.803 119.816 731.032 119.239C742.261 118.662 750.473 126.072 750.988 136.08Z" fill="white"/>
<path d="M779.321 134.624C779.145 131.207 776.579 128.891 773.649 129.042C770.72 129.192 768.405 131.759 768.58 135.176C768.756 138.593 771.322 140.909 774.252 140.758C777.181 140.608 779.496 138.041 779.321 134.624ZM792.991 133.921C793.505 143.93 786.095 152.142 774.866 152.72C763.638 153.297 755.425 145.887 754.91 135.879C754.396 125.87 761.806 117.658 773.035 117.08C784.263 116.503 792.476 123.913 792.991 133.921Z" fill="white"/>
<path d="M808.788 140.941C810.008 140.879 810.703 140.109 810.665 139.377C810.54 136.935 797.358 137.613 796.806 126.872C796.518 121.258 801.612 115.612 810.155 115.173C818.943 114.721 823.613 119.866 823.613 119.866L819.351 127.427C819.351 127.427 816.284 124.892 812.867 125.068C811.646 125.131 810.952 125.901 810.989 126.633C811.115 129.074 824.296 128.397 824.848 139.137C825.137 144.751 820.043 150.398 811.499 150.837C800.758 151.389 796.063 145.756 796.063 145.756L800.325 138.195C800.325 138.195 803.906 141.192 808.788 140.941Z" fill="white"/>
<path d="M841.347 136.331L841.472 138.772L856.118 138.019L856.62 147.784L829.281 149.189L827.524 115.014L853.888 113.659L854.389 123.423L840.72 124.126L840.845 126.567L853.538 125.915L854.04 135.679L841.347 136.331Z" fill="white"/>
<path d="M879.791 112.328L883.71 121.917L886.626 111.977L901.272 111.224L890.634 132.819L891.312 146.001L878.618 146.653L877.941 133.471L865.145 113.081L879.791 112.328Z" fill="white"/>
<path d="M925.592 127.107C925.416 123.689 922.85 121.374 919.92 121.524C916.991 121.675 914.676 124.241 914.851 127.659C915.027 131.076 917.593 133.392 920.523 133.241C923.452 133.09 925.767 130.524 925.592 127.107ZM939.262 126.404C939.776 136.412 932.366 144.625 921.137 145.202C909.909 145.779 901.696 138.369 901.182 128.361C900.667 118.353 908.077 110.14 919.306 109.563C930.534 108.986 938.747 116.396 939.262 126.404Z" fill="white"/>
<path d="M961.048 130.913C963.245 130.801 964.866 129.004 964.728 126.319L963.787 108.011L976.481 107.359L977.422 125.667C977.923 135.431 971.44 142.617 961.676 143.119C951.911 143.62 944.725 137.137 944.223 127.373L943.283 109.065L955.976 108.413L956.917 126.72C957.055 129.405 958.851 131.026 961.048 130.913Z" fill="white"/>
<path d="M1017.77 139.501L1003.13 140.254L996.69 129.326L996.202 129.352L996.779 140.58L984.086 141.233L982.33 107.058C982.33 107.058 989.139 106.219 996.462 105.842C1007.2 105.29 1012.34 109.922 1012.7 117.001C1013.06 124.079 1008.8 126.746 1008.8 126.746L1017.77 139.501ZM995.75 120.564L997.215 120.489C998.924 120.401 1000.08 119.117 1000.01 117.653C999.931 116.188 998.648 115.03 996.939 115.118L995.474 115.194L995.75 120.564Z" fill="white"/>
<path d="M1027.77 104.723L1053.15 103.418L1053.7 114.159L1041.01 114.811L1041.21 118.717L1051.46 118.19L1051.97 127.954L1041.71 128.481L1042.21 138.245L1029.52 138.898L1027.77 104.723Z" fill="white"/>
<path d="M1069.73 102.566L1071.49 136.741L1058.79 137.393L1057.04 103.219L1069.73 102.566Z" fill="white"/>
<path d="M1095.32 124.258C1095.8 124.233 1096.29 124.208 1096.29 124.208L1095.99 118.349L1107.71 117.747L1108.32 129.708C1108.32 129.708 1104.23 135.792 1094.47 136.294C1084.21 136.821 1076 129.411 1075.49 119.403C1074.97 109.395 1082.38 101.182 1092.63 100.655C1101.91 100.178 1106.58 105.323 1106.58 105.323L1101.2 114.9C1101.2 114.9 1098.13 112.365 1094.71 112.541C1091.3 112.716 1088.98 115.283 1089.16 118.7C1089.33 122.118 1091.9 124.433 1095.32 124.258Z" fill="white"/>
<path d="M1124.42 99.7558L1125.02 111.473L1132.83 111.071L1132.23 99.3543L1144.92 98.702L1146.68 132.876L1133.98 133.529L1133.38 121.812L1125.57 122.213L1126.17 133.93L1113.48 134.583L1111.72 100.408L1124.42 99.7558Z" fill="white"/>
<path d="M1148.82 98.5017L1180.06 96.8959L1180.64 108.125L1171.36 108.601L1172.54 131.547L1159.85 132.199L1158.67 109.254L1149.39 109.73L1148.82 98.5017Z" fill="white"/>
<path d="M1197.78 118.013L1197.9 120.454L1212.55 119.701L1213.05 129.465L1185.71 130.87L1183.95 96.696L1210.32 95.3411L1210.82 105.105L1197.15 105.808L1197.27 108.249L1209.97 107.596L1210.47 117.361L1197.78 118.013Z" fill="white"/>
<path d="M1251.15 127.507L1236.5 128.26L1230.07 117.332L1229.58 117.357L1230.15 128.586L1217.46 129.239L1215.71 95.0641C1215.71 95.0641 1222.52 94.2246 1229.84 93.8483C1240.58 93.2963 1245.71 97.9274 1246.08 105.006C1246.44 112.085 1242.17 114.752 1242.17 114.752L1251.15 127.507ZM1229.13 108.57L1230.59 108.494C1232.3 108.407 1233.46 107.123 1233.38 105.659C1233.31 104.194 1232.02 103.036 1230.31 103.124L1228.85 103.199L1229.13 108.57Z" fill="white"/>
<path d="M1330.02 106.186C1329.51 96.1775 1336.92 87.9648 1347.17 87.4378C1356.45 86.9611 1361.12 92.1056 1361.12 92.1056L1355.73 101.683C1355.73 101.683 1352.67 99.148 1349.25 99.3236C1345.83 99.4993 1343.52 102.066 1343.69 105.483C1343.87 108.901 1346.43 111.216 1349.85 111.041C1353.27 110.865 1356.06 108.029 1356.06 108.029L1362.4 117.004C1362.4 117.004 1358.28 122.6 1349 123.077C1338.75 123.604 1330.54 116.194 1330.02 106.186Z" fill="white"/>
<path d="M1377.47 86.6146L1378.08 98.3316L1385.89 97.9301L1385.29 86.2132L1397.98 85.5608L1399.74 119.735L1387.04 120.388L1386.44 108.671L1378.63 109.072L1379.23 120.789L1366.54 121.441L1364.78 87.267L1377.47 86.6146Z" fill="white"/>
<path d="M1428.14 101.143C1427.96 97.7256 1425.4 95.41 1422.47 95.5606C1419.54 95.7111 1417.22 98.2776 1417.4 101.695C1417.58 105.112 1420.14 107.428 1423.07 107.278C1426 107.127 1428.32 104.56 1428.14 101.143ZM1441.81 100.441C1442.32 110.449 1434.91 118.661 1423.69 119.239C1412.46 119.816 1404.24 112.406 1403.73 102.398C1403.22 92.3894 1410.63 84.1766 1421.85 83.5995C1433.08 83.0224 1441.3 90.4323 1441.81 100.441Z" fill="white"/>
<path d="M1470.14 98.9843C1469.97 95.5669 1467.4 93.2513 1464.47 93.4019C1461.54 93.5524 1459.23 96.1189 1459.4 99.5363C1459.58 102.954 1462.14 105.269 1465.07 105.119C1468 104.968 1470.32 102.402 1470.14 98.9843ZM1483.81 98.2818C1484.33 108.29 1476.92 116.503 1465.69 117.08C1454.46 117.657 1446.25 110.247 1445.73 100.239C1445.22 90.2307 1452.63 82.0179 1463.86 81.4408C1475.09 80.8637 1483.3 88.2736 1483.81 98.2818Z" fill="white"/>
<path d="M1499.61 105.302C1500.83 105.239 1501.53 104.469 1501.49 103.737C1501.36 101.296 1488.18 101.973 1487.63 91.2328C1487.34 85.6184 1492.43 79.9721 1500.98 79.533C1509.77 79.0814 1514.44 84.2259 1514.44 84.2259L1510.17 91.7873C1510.17 91.7873 1507.11 89.2527 1503.69 89.4284C1502.47 89.4911 1501.77 90.261 1501.81 90.9933C1501.94 93.4344 1515.12 92.7569 1515.67 103.497C1515.96 109.112 1510.86 114.758 1502.32 115.197C1491.58 115.749 1486.89 110.117 1486.89 110.117L1491.15 102.555C1491.15 102.555 1494.73 105.553 1499.61 105.302Z" fill="white"/>
<path d="M1532.17 100.692L1532.29 103.133L1546.94 102.38L1547.44 112.144L1520.1 113.549L1518.35 79.3746L1544.71 78.0197L1545.21 87.7838L1531.54 88.4864L1531.67 90.9274L1544.36 90.2751L1544.86 100.039L1532.17 100.692Z" fill="white"/>
<path d="M1570.61 76.6884L1574.53 86.2769L1577.45 76.3372L1592.09 75.5844L1581.46 97.1795L1582.13 110.361L1569.44 111.013L1568.76 97.8318L1555.97 77.4412L1570.61 76.6884Z" fill="white"/>
<path d="M1616.41 91.4669C1616.24 88.0494 1613.67 85.7339 1610.74 85.8844C1607.81 86.035 1605.5 88.6014 1605.67 92.0189C1605.85 95.4363 1608.42 97.7519 1611.34 97.6014C1614.27 97.4508 1616.59 94.8843 1616.41 91.4669ZM1630.08 90.7643C1630.6 100.773 1623.19 108.985 1611.96 109.562C1600.73 110.139 1592.52 102.73 1592 92.7214C1591.49 82.7132 1598.9 74.5005 1610.13 73.9234C1621.36 73.3463 1629.57 80.7561 1630.08 90.7643Z" fill="white"/>
<path d="M1651.87 95.2738C1654.07 95.1609 1655.69 93.3644 1655.55 90.6793L1654.61 72.3715L1667.3 71.7192L1668.24 90.0269C1668.75 99.791 1662.26 106.977 1652.5 107.479C1642.73 107.981 1635.55 101.497 1635.05 91.7331L1634.1 73.4254L1646.8 72.773L1647.74 91.0807C1647.88 93.7658 1649.67 95.3867 1651.87 95.2738Z" fill="white"/>
<path d="M1708.59 103.862L1693.95 104.614L1687.51 93.6868L1687.02 93.7119L1687.6 104.941L1674.91 105.593L1673.15 71.4186C1673.15 71.4186 1679.96 70.5791 1687.28 70.2027C1698.03 69.6507 1703.16 74.2819 1703.52 81.3609C1703.89 88.4398 1699.62 91.1067 1699.62 91.1067L1708.59 103.862ZM1686.57 84.9242L1688.04 84.8489C1689.75 84.7611 1690.9 83.4778 1690.83 82.0132C1690.75 80.5486 1689.47 79.3908 1687.76 79.4786L1686.3 79.5539L1686.57 84.9242Z" fill="white"/>
<path d="M1718.59 69.0835L1743.97 67.7787L1744.53 78.5193L1731.83 79.1716L1732.03 83.0773L1742.29 82.5504L1742.79 92.3145L1732.54 92.8414L1733.04 102.605L1720.34 103.258L1718.59 69.0835Z" fill="white"/>
<path d="M1760.55 66.9266L1762.31 101.101L1749.62 101.753L1747.86 67.579L1760.55 66.9266Z" fill="white"/>
<path d="M1786.14 88.618C1786.63 88.593 1787.11 88.5679 1787.11 88.5679L1786.81 82.7094L1798.53 82.1072L1799.14 94.0683C1799.14 94.0683 1795.05 100.153 1785.29 100.654C1775.04 101.181 1766.82 93.7714 1766.31 83.7632C1765.79 73.755 1773.2 65.5422 1783.46 65.0153C1792.73 64.5386 1797.4 69.6831 1797.4 69.6831L1792.02 79.2601C1792.02 79.2601 1788.95 76.7255 1785.54 76.9011C1782.12 77.0767 1779.8 79.6432 1779.98 83.0607C1780.15 86.4781 1782.72 88.7937 1786.14 88.618Z" fill="white"/>
<path d="M1815.24 64.1161L1815.84 75.8331L1823.65 75.4316L1823.05 63.7147L1835.74 63.0623L1837.5 97.2367L1824.81 97.8891L1824.2 86.1722L1816.39 86.5736L1817 98.2906L1804.3 98.9429L1802.55 64.7685L1815.24 64.1161Z" fill="white"/>
<path d="M1839.64 62.8621L1870.88 61.2563L1871.46 72.485L1862.19 72.9617L1863.37 95.9074L1850.67 96.5598L1849.49 73.6141L1840.22 74.0908L1839.64 62.8621Z" fill="white"/>
<path d="M1888.6 82.3732L1888.72 84.8143L1903.37 84.0615L1903.87 93.8257L1876.53 95.2307L1874.78 61.0563L1901.14 59.7014L1901.64 69.4655L1887.97 70.1681L1888.1 72.6091L1900.79 71.9568L1901.29 81.7209L1888.6 82.3732Z" fill="white"/>
<path d="M1941.97 91.8676L1927.32 92.6203L1920.89 81.6927L1920.4 81.7178L1920.98 92.9465L1908.28 93.5989L1906.53 59.4244C1906.53 59.4244 1913.34 58.585 1920.66 58.2086C1931.4 57.6566 1936.53 62.2878 1936.9 69.3667C1937.26 76.4457 1932.99 79.1126 1932.99 79.1126L1941.97 91.8676ZM1919.95 72.9301L1921.41 72.8548C1923.12 72.767 1924.28 71.4837 1924.2 70.0191C1924.13 68.5545 1922.85 67.3967 1921.14 67.4845L1919.67 67.5598L1919.95 72.9301Z" fill="white"/>
</svg>
