<svg width="1440" height="247" viewBox="0 0 1440 247" fill="none" xmlns="http://www.w3.org/2000/svg">
<path d="M2028.21 0.226012L-157.196 116.454L-150.288 246.354L2035.12 130.126L2028.21 0.226012Z" fill="#FF693B"/>
<path d="M600.736 152.68C606.701 152.68 611.536 147.844 611.536 141.88C611.536 135.915 606.701 131.08 600.736 131.08C594.772 131.08 589.937 135.915 589.937 141.88C589.937 147.844 594.772 152.68 600.736 152.68Z" fill="#F2F2F2"/>
<path d="M1290.15 116.544C1296.11 116.544 1300.95 111.709 1300.95 105.744C1300.95 99.7796 1296.11 94.9443 1290.15 94.9443C1284.18 94.9443 1279.35 99.7796 1279.35 105.744C1279.35 111.709 1284.18 116.544 1290.15 116.544Z" fill="#F2F2F2"/>
<path d="M-41.3244 177.879C-41.8388 167.871 -34.4289 159.658 -24.1766 159.131C-14.9007 158.654 -10.2309 163.799 -10.2309 163.799L-15.6126 173.376C-15.6126 173.376 -18.6798 170.841 -22.0973 171.017C-25.5147 171.193 -27.8303 173.759 -27.6547 177.177C-27.479 180.594 -24.9125 182.91 -21.4951 182.734C-18.0777 182.558 -15.2864 179.723 -15.2864 179.723L-8.95122 188.697C-8.95122 188.697 -13.0691 194.294 -22.345 194.77C-32.5973 195.297 -40.8101 187.887 -41.3244 177.879Z" fill="white"/>
<path d="M6.12787 158.308L6.73005 170.025L14.5413 169.623L13.9392 157.907L26.6325 157.254L28.3889 191.429L15.6955 192.081L15.0933 180.364L7.28205 180.765L7.88423 192.482L-4.80912 193.135L-6.56548 158.96L6.12787 158.308Z" fill="white"/>
<path d="M56.7935 172.836C56.6179 169.419 54.0514 167.103 51.1221 167.254C48.1929 167.404 45.8773 169.971 46.053 173.388C46.2286 176.806 48.7951 179.121 51.7243 178.971C54.6536 178.82 56.9691 176.254 56.7935 172.836ZM70.4633 172.134C70.9776 182.142 63.5678 190.355 52.3391 190.932C41.1103 191.509 32.8976 184.099 32.3832 174.091C31.8688 164.083 39.2787 155.87 50.5074 155.293C61.7362 154.716 69.9489 162.126 70.4633 172.134Z" fill="white"/>
<path d="M98.7963 170.678C98.6207 167.26 96.0542 164.945 93.125 165.095C90.1958 165.246 87.8802 167.812 88.0558 171.23C88.2315 174.647 90.798 176.963 93.7272 176.812C96.6564 176.662 98.972 174.095 98.7963 170.678ZM112.466 169.975C112.98 179.983 105.571 188.196 94.3419 188.773C83.1132 189.35 74.9004 181.94 74.3861 171.932C73.8717 161.924 81.2815 153.711 92.5103 153.134C103.739 152.557 111.952 159.967 112.466 169.975Z" fill="white"/>
<path d="M128.263 176.995C129.484 176.932 130.178 176.163 130.141 175.43C130.015 172.989 116.834 173.667 116.282 162.926C115.993 157.312 121.087 151.665 129.631 151.226C138.419 150.775 143.089 155.919 143.089 155.919L138.827 163.481C138.827 163.481 135.76 160.946 132.342 161.122C131.122 161.184 130.427 161.954 130.465 162.687C130.59 165.128 143.772 164.45 144.324 175.191C144.612 180.805 139.518 186.451 130.975 186.891C120.234 187.443 115.539 181.81 115.539 181.81L119.801 174.248C119.801 174.248 123.381 177.246 128.263 176.995Z" fill="white"/>
<path d="M160.822 172.385L160.948 174.826L175.594 174.073L176.096 183.837L148.756 185.242L147 151.068L173.363 149.713L173.865 159.477L160.195 160.18L160.321 162.621L173.014 161.968L173.516 171.733L160.822 172.385Z" fill="white"/>
<path d="M199.267 148.382L203.186 157.97L206.102 148.031L220.748 147.278L210.11 168.873L210.787 182.054L198.094 182.707L197.416 169.525L184.62 149.135L199.267 148.382Z" fill="white"/>
<path d="M245.067 163.16C244.892 159.743 242.325 157.427 239.396 157.578C236.467 157.728 234.151 160.295 234.327 163.712C234.502 167.13 237.069 169.445 239.998 169.295C242.927 169.144 245.243 166.578 245.067 163.16ZM258.737 162.458C259.252 172.466 251.842 180.679 240.613 181.256C229.384 181.833 221.171 174.423 220.657 164.415C220.143 154.407 227.553 146.194 238.781 145.617C250.01 145.04 258.223 152.449 258.737 162.458Z" fill="white"/>
<path d="M280.524 166.967C282.721 166.854 284.342 165.058 284.204 162.373L283.263 144.065L295.956 143.413L296.897 161.72C297.399 171.484 290.915 178.671 281.151 179.172C271.387 179.674 264.201 173.191 263.699 163.426L262.758 145.119L275.452 144.466L276.392 162.774C276.53 165.459 278.327 167.08 280.524 166.967Z" fill="white"/>
<path d="M337.248 175.555L322.602 176.308L316.166 165.38L315.678 165.405L316.255 176.634L303.561 177.286L301.805 143.112C301.805 143.112 308.615 142.272 315.938 141.896C326.679 141.344 331.811 145.975 332.175 153.054C332.539 160.133 328.271 162.8 328.271 162.8L337.248 175.555ZM315.226 156.618L316.691 156.542C318.399 156.454 319.557 155.171 319.482 153.707C319.407 152.242 318.123 151.084 316.415 151.172L314.95 151.247L315.226 156.618Z" fill="white"/>
<path d="M347.241 140.777L372.627 139.472L373.179 150.213L360.486 150.865L360.687 154.771L370.939 154.244L371.441 164.008L361.189 164.535L361.69 174.299L348.997 174.951L347.241 140.777Z" fill="white"/>
<path d="M389.207 138.62L390.964 172.794L378.27 173.447L376.514 139.272L389.207 138.62Z" fill="white"/>
<path d="M414.791 160.311C415.279 160.286 415.768 160.261 415.768 160.261L415.466 154.403L427.183 153.801L427.798 165.762C427.798 165.762 423.705 171.846 413.941 172.348C403.689 172.875 395.476 165.465 394.962 155.457C394.447 145.448 401.857 137.236 412.11 136.709C421.385 136.232 426.055 141.376 426.055 141.376L420.674 150.953C420.674 150.953 417.606 148.419 414.189 148.594C410.772 148.77 408.456 151.337 408.632 154.754C408.807 158.171 411.374 160.487 414.791 160.311Z" fill="white"/>
<path d="M443.892 135.81L444.494 147.526L452.306 147.125L451.703 135.408L464.397 134.756L466.153 168.93L453.46 169.582L452.858 157.866L445.046 158.267L445.648 169.984L432.955 170.636L431.199 136.462L443.892 135.81Z" fill="white"/>
<path d="M468.293 134.555L499.538 132.95L500.115 144.178L490.839 144.655L492.018 167.601L479.325 168.253L478.146 145.307L468.87 145.784L468.293 134.555Z" fill="white"/>
<path d="M517.251 154.067L517.376 156.508L532.022 155.755L532.524 165.519L505.185 166.924L503.428 132.75L529.791 131.395L530.293 141.159L516.624 141.861L516.749 144.302L529.442 143.65L529.944 153.414L517.251 154.067Z" fill="white"/>
<path d="M570.623 163.561L555.977 164.314L549.542 153.386L549.053 153.411L549.63 164.64L536.937 165.292L535.181 131.118C535.181 131.118 541.991 130.278 549.314 129.902C560.054 129.35 565.187 133.981 565.551 141.06C565.915 148.139 561.646 150.806 561.646 150.806L570.623 163.561ZM548.602 144.623L550.066 144.548C551.775 144.46 552.933 143.177 552.858 141.712C552.782 140.248 551.499 139.09 549.79 139.178L548.326 139.253L548.602 144.623Z" fill="white"/>
<path d="M639.2 141.509C638.686 131.501 646.095 123.288 656.348 122.761C665.624 122.284 670.294 127.429 670.294 127.429L664.912 137.006C664.912 137.006 661.845 134.471 658.427 134.647C655.01 134.822 652.694 137.389 652.87 140.806C653.045 144.224 655.612 146.539 659.029 146.364C662.447 146.188 665.238 143.352 665.238 143.352L671.573 152.327C671.573 152.327 667.455 157.923 658.179 158.4C647.927 158.927 639.714 151.517 639.2 141.509Z" fill="white"/>
<path d="M686.652 121.938L687.254 133.655L695.066 133.253L694.464 121.536L707.157 120.884L708.913 155.058L696.22 155.711L695.618 143.994L687.806 144.395L688.409 156.112L675.715 156.765L673.959 122.59L686.652 121.938Z" fill="white"/>
<path d="M737.318 136.466C737.142 133.049 734.576 130.733 731.647 130.884C728.717 131.034 726.402 133.601 726.577 137.018C726.753 140.436 729.32 142.751 732.249 142.601C735.178 142.45 737.494 139.884 737.318 136.466ZM750.988 135.764C751.502 145.772 744.092 153.985 732.863 154.562C721.635 155.139 713.422 147.729 712.908 137.721C712.393 127.713 719.803 119.5 731.032 118.923C742.261 118.346 750.473 125.756 750.988 135.764Z" fill="white"/>
<path d="M779.321 134.308C779.145 130.89 776.579 128.575 773.649 128.725C770.72 128.876 768.405 131.442 768.58 134.86C768.756 138.277 771.322 140.593 774.252 140.442C777.181 140.292 779.496 137.725 779.321 134.308ZM792.991 133.605C793.505 143.613 786.095 151.826 774.866 152.403C763.638 152.98 755.425 145.57 754.91 135.562C754.396 125.554 761.806 117.341 773.035 116.764C784.263 116.187 792.476 123.597 792.991 133.605Z" fill="white"/>
<path d="M808.788 140.625C810.008 140.562 810.703 139.792 810.665 139.06C810.54 136.619 797.358 137.297 796.806 126.556C796.518 120.942 801.612 115.295 810.155 114.856C818.943 114.405 823.613 119.549 823.613 119.549L819.351 127.111C819.351 127.111 816.284 124.576 812.867 124.752C811.646 124.814 810.952 125.584 810.989 126.317C811.115 128.758 824.296 128.08 824.848 138.821C825.137 144.435 820.043 150.081 811.499 150.52C800.758 151.072 796.063 145.44 796.063 145.44L800.325 137.878C800.325 137.878 803.906 140.876 808.788 140.625Z" fill="white"/>
<path d="M841.347 136.015L841.472 138.456L856.118 137.703L856.62 147.467L829.281 148.872L827.524 114.698L853.888 113.343L854.389 123.107L840.72 123.81L840.845 126.251L853.538 125.598L854.04 135.362L841.347 136.015Z" fill="white"/>
<path d="M879.791 112.012L883.71 121.6L886.626 111.66L901.272 110.908L890.634 132.503L891.312 145.684L878.618 146.337L877.941 133.155L865.145 112.764L879.791 112.012Z" fill="white"/>
<path d="M925.592 126.79C925.416 123.373 922.85 121.057 919.92 121.208C916.991 121.358 914.676 123.925 914.851 127.342C915.027 130.76 917.593 133.075 920.523 132.925C923.452 132.774 925.767 130.208 925.592 126.79ZM939.262 126.088C939.776 136.096 932.366 144.309 921.137 144.886C909.909 145.463 901.696 138.053 901.182 128.045C900.667 118.036 908.077 109.824 919.306 109.247C930.534 108.67 938.747 116.079 939.262 126.088Z" fill="white"/>
<path d="M961.048 130.597C963.245 130.484 964.866 128.688 964.728 126.002L963.787 107.695L976.481 107.042L977.422 125.35C977.923 135.114 971.44 142.3 961.676 142.802C951.911 143.304 944.725 136.82 944.223 127.056L943.283 108.749L955.976 108.096L956.917 126.404C957.055 129.089 958.851 130.71 961.048 130.597Z" fill="white"/>
<path d="M1017.77 139.185L1003.13 139.938L996.69 129.01L996.202 129.035L996.779 140.264L984.086 140.916L982.33 106.742C982.33 106.742 989.139 105.902 996.462 105.526C1007.2 104.974 1012.34 109.605 1012.7 116.684C1013.06 123.763 1008.8 126.43 1008.8 126.43L1017.77 139.185ZM995.75 120.247L997.215 120.172C998.924 120.084 1000.08 118.801 1000.01 117.336C999.931 115.872 998.648 114.714 996.939 114.802L995.474 114.877L995.75 120.247Z" fill="white"/>
<path d="M1027.77 104.407L1053.15 103.102L1053.7 113.842L1041.01 114.495L1041.21 118.401L1051.46 117.874L1051.97 127.638L1041.71 128.165L1042.21 137.929L1029.52 138.581L1027.77 104.407Z" fill="white"/>
<path d="M1069.73 102.25L1071.49 136.424L1058.79 137.077L1057.04 102.902L1069.73 102.25Z" fill="white"/>
<path d="M1095.32 123.941C1095.8 123.916 1096.29 123.891 1096.29 123.891L1095.99 118.033L1107.71 117.43L1108.32 129.391C1108.32 129.391 1104.23 135.476 1094.47 135.978C1084.21 136.505 1076 129.095 1075.49 119.086C1074.97 109.078 1082.38 100.865 1092.63 100.339C1101.91 99.8619 1106.58 105.006 1106.58 105.006L1101.2 114.583C1101.2 114.583 1098.13 112.049 1094.71 112.224C1091.3 112.4 1088.98 114.966 1089.16 118.384C1089.33 121.801 1091.9 124.117 1095.32 123.941Z" fill="white"/>
<path d="M1124.42 99.4394L1125.02 111.156L1132.83 110.755L1132.23 99.0379L1144.92 98.3856L1146.68 132.56L1133.98 133.212L1133.38 121.495L1125.57 121.897L1126.17 133.614L1113.48 134.266L1111.72 100.092L1124.42 99.4394Z" fill="white"/>
<path d="M1148.82 98.1853L1180.06 96.5795L1180.64 107.808L1171.36 108.285L1172.54 131.231L1159.85 131.883L1158.67 108.937L1149.39 109.414L1148.82 98.1853Z" fill="white"/>
<path d="M1197.78 117.696L1197.9 120.138L1212.55 119.385L1213.05 129.149L1185.71 130.554L1183.95 96.3796L1210.32 95.0247L1210.82 104.789L1197.15 105.491L1197.27 107.932L1209.97 107.28L1210.47 117.044L1197.78 117.696Z" fill="white"/>
<path d="M1251.15 127.191L1236.5 127.944L1230.07 117.016L1229.58 117.041L1230.15 128.27L1217.46 128.922L1215.71 94.7477C1215.71 94.7477 1222.52 93.9082 1229.84 93.5318C1240.58 92.9799 1245.71 97.611 1246.08 104.69C1246.44 111.769 1242.17 114.436 1242.17 114.436L1251.15 127.191ZM1229.13 108.253L1230.59 108.178C1232.3 108.09 1233.46 106.807 1233.38 105.342C1233.31 103.878 1232.02 102.72 1230.31 102.808L1228.85 102.883L1229.13 108.253Z" fill="white"/>
<path d="M1330.02 105.869C1329.51 95.8611 1336.92 87.6484 1347.17 87.1214C1356.45 86.6447 1361.12 91.7892 1361.12 91.7892L1355.73 101.366C1355.73 101.366 1352.67 98.8316 1349.25 99.0072C1345.83 99.1828 1343.52 101.749 1343.69 105.167C1343.87 108.584 1346.43 110.9 1349.85 110.724C1353.27 110.549 1356.06 107.713 1356.06 107.713L1362.4 116.688C1362.4 116.688 1358.28 122.284 1349 122.76C1338.75 123.287 1330.54 115.878 1330.02 105.869Z" fill="white"/>
<path d="M1377.47 86.2982L1378.08 98.0152L1385.89 97.6137L1385.29 85.8968L1397.98 85.2444L1399.74 119.419L1387.04 120.071L1386.44 108.354L1378.63 108.756L1379.23 120.473L1366.54 121.125L1364.78 86.9506L1377.47 86.2982Z" fill="white"/>
<path d="M1428.14 100.827C1427.96 97.4092 1425.4 95.0936 1422.47 95.2442C1419.54 95.3947 1417.22 97.9612 1417.4 101.379C1417.58 104.796 1420.14 107.112 1423.07 106.961C1426 106.811 1428.32 104.244 1428.14 100.827ZM1441.81 100.124C1442.32 110.132 1434.91 118.345 1423.69 118.922C1412.46 119.499 1404.24 112.089 1403.73 102.081C1403.22 92.073 1410.63 83.8602 1421.85 83.2831C1433.08 82.706 1441.3 90.1159 1441.81 100.124Z" fill="white"/>
<path d="M1470.14 98.6679C1469.97 95.2505 1467.4 92.9349 1464.47 93.0855C1461.54 93.236 1459.23 95.8025 1459.4 99.2199C1459.58 102.637 1462.14 104.953 1465.07 104.802C1468 104.652 1470.32 102.085 1470.14 98.6679ZM1483.81 97.9654C1484.33 107.974 1476.92 116.186 1465.69 116.763C1454.46 117.341 1446.25 109.931 1445.73 99.9225C1445.22 89.9143 1452.63 81.7015 1463.86 81.1244C1475.09 80.5473 1483.3 87.9572 1483.81 97.9654Z" fill="white"/>
<path d="M1499.61 104.985C1500.83 104.923 1501.53 104.153 1501.49 103.42C1501.36 100.979 1488.18 101.657 1487.63 90.9164C1487.34 85.302 1492.43 79.6557 1500.98 79.2166C1509.77 78.765 1514.44 83.9095 1514.44 83.9095L1510.17 91.4709C1510.17 91.4709 1507.11 88.9363 1503.69 89.112C1502.47 89.1747 1501.77 89.9446 1501.81 90.6769C1501.94 93.118 1515.12 92.4405 1515.67 103.181C1515.96 108.795 1510.86 114.442 1502.32 114.881C1491.58 115.433 1486.89 109.8 1486.89 109.8L1491.15 102.239C1491.15 102.239 1494.73 105.236 1499.61 104.985Z" fill="white"/>
<path d="M1532.17 100.375L1532.29 102.816L1546.94 102.063L1547.44 111.828L1520.1 113.233L1518.35 79.0582L1544.71 77.7033L1545.21 87.4674L1531.54 88.17L1531.67 90.611L1544.36 89.9586L1544.86 99.7228L1532.17 100.375Z" fill="white"/>
<path d="M1570.61 76.372L1574.53 85.9605L1577.45 76.0208L1592.09 75.268L1581.46 96.8631L1582.13 110.045L1569.44 110.697L1568.76 97.5154L1555.97 77.1248L1570.61 76.372Z" fill="white"/>
<path d="M1616.41 91.1505C1616.24 87.733 1613.67 85.4175 1610.74 85.568C1607.81 85.7186 1605.5 88.285 1605.67 91.7025C1605.85 95.1199 1608.42 97.4355 1611.34 97.285C1614.27 97.1344 1616.59 94.5679 1616.41 91.1505ZM1630.08 90.4479C1630.6 100.456 1623.19 108.669 1611.96 109.246C1600.73 109.823 1592.52 102.413 1592 92.405C1591.49 82.3968 1598.9 74.1841 1610.13 73.607C1621.36 73.0299 1629.57 80.4397 1630.08 90.4479Z" fill="white"/>
<path d="M1651.87 94.9574C1654.07 94.8445 1655.69 93.048 1655.55 90.3628L1654.61 72.0551L1667.3 71.4028L1668.24 89.7105C1668.75 99.4746 1662.26 106.661 1652.5 107.163C1642.73 107.664 1635.55 101.181 1635.05 91.4167L1634.1 73.1089L1646.8 72.4566L1647.74 90.7643C1647.88 93.4494 1649.67 95.0703 1651.87 94.9574Z" fill="white"/>
<path d="M1708.59 103.545L1693.95 104.298L1687.51 93.3704L1687.02 93.3955L1687.6 104.624L1674.91 105.277L1673.15 71.1022C1673.15 71.1022 1679.96 70.2627 1687.28 69.8863C1698.03 69.3343 1703.16 73.9655 1703.52 81.0445C1703.89 88.1234 1699.62 90.7903 1699.62 90.7903L1708.59 103.545ZM1686.57 84.6078L1688.04 84.5325C1689.75 84.4447 1690.9 83.1614 1690.83 81.6968C1690.75 80.2322 1689.47 79.0744 1687.76 79.1622L1686.3 79.2375L1686.57 84.6078Z" fill="white"/>
<path d="M1718.59 68.767L1743.97 67.4623L1744.53 78.2029L1731.83 78.8552L1732.03 82.7609L1742.29 82.234L1742.79 91.9981L1732.54 92.525L1733.04 102.289L1720.34 102.941L1718.59 68.767Z" fill="white"/>
<path d="M1760.55 66.6102L1762.31 100.785L1749.62 101.437L1747.86 67.2626L1760.55 66.6102Z" fill="white"/>
<path d="M1786.14 88.3016C1786.63 88.2765 1787.11 88.2515 1787.11 88.2515L1786.81 82.393L1798.53 81.7908L1799.14 93.7518C1799.14 93.7518 1795.05 99.8361 1785.29 100.338C1775.04 100.865 1766.82 93.455 1766.31 83.4468C1765.79 73.4386 1773.2 65.2258 1783.46 64.6989C1792.73 64.2222 1797.4 69.3666 1797.4 69.3666L1792.02 78.9436C1792.02 78.9436 1788.95 76.4091 1785.54 76.5847C1782.12 76.7603 1779.8 79.3268 1779.98 82.7443C1780.15 86.1617 1782.72 88.4773 1786.14 88.3016Z" fill="white"/>
<path d="M1815.24 63.7997L1815.84 75.5167L1823.65 75.1152L1823.05 63.3983L1835.74 62.7459L1837.5 96.9203L1824.81 97.5727L1824.2 85.8558L1816.39 86.2572L1817 97.9741L1804.3 98.6265L1802.55 64.4521L1815.24 63.7997Z" fill="white"/>
<path d="M1839.64 62.5457L1870.88 60.9399L1871.46 72.1686L1862.19 72.6453L1863.37 95.591L1850.67 96.2434L1849.49 73.2977L1840.22 73.7744L1839.64 62.5457Z" fill="white"/>
<path d="M1888.6 82.0568L1888.72 84.4979L1903.37 83.7451L1903.87 93.5093L1876.53 94.9143L1874.78 60.7399L1901.14 59.385L1901.64 69.1491L1887.97 69.8517L1888.1 72.2927L1900.79 71.6404L1901.29 81.4045L1888.6 82.0568Z" fill="white"/>
<path d="M1941.97 91.5512L1927.32 92.3039L1920.89 81.3763L1920.4 81.4014L1920.98 92.6301L1908.28 93.2824L1906.53 59.108C1906.53 59.108 1913.34 58.2686 1920.66 57.8922C1931.4 57.3402 1936.53 61.9714 1936.9 69.0503C1937.26 76.1293 1932.99 78.7962 1932.99 78.7962L1941.97 91.5512ZM1919.95 72.6137L1921.41 72.5384C1923.12 72.4506 1924.28 71.1673 1924.2 69.7027C1924.13 68.2381 1922.85 67.0803 1921.14 67.1681L1919.67 67.2434L1919.95 72.6137Z" fill="white"/>
</svg>
