<svg width="112" height="48" viewBox="0 0 112 48" fill="none" xmlns="http://www.w3.org/2000/svg">
<path d="M49.771 16.2866L51.871 8.46658L53.961 0.636581H37.761L35.661 8.46658L33.281 17.3666L30.891 8.46658L28.791 0.636581H12.591L10.491 8.46658L4.20097 31.9466L2.10098 39.7666L0.000976562 47.5966H16.211L20.691 30.8666L25.171 47.5966H25.181H41.381L49.771 16.2866Z" fill="#2A2A2D"/>
<path d="M66.7909 24.1166L72.2609 16.2866L77.7509 8.46658L83.2309 0.636581H64.1209L58.6409 8.46658L53.1609 16.2866L47.6809 24.1166H47.6709L53.9709 47.5966H73.0809L68.8809 31.9466L66.7909 24.1166Z" fill="#2A2A2D"/>
<path d="M95.4711 0.636581H92.5611L87.0811 8.46658L81.6011 16.2866L76.1211 24.1166H89.1711L87.0811 31.9466L84.9811 39.7666L82.8811 47.5966H99.0911L107.481 16.2866L109.571 8.46658L111.671 0.636581H95.4711Z" fill="#2A2A2D"/>
</svg>
