<svg width="142" height="61" viewBox="0 0 142 61" fill="none" xmlns="http://www.w3.org/2000/svg">
<path d="M36.7501 0.197754L34.0938 10.299L31.4367 20.4011L20.8115 60.8085H0.288086L2.94438 50.7073L5.60068 40.6052L13.5704 10.299L16.2267 0.197754H36.7501Z" fill="white"/>
<path d="M68.628 0.197754L65.971 10.299L63.3147 20.4011L52.6887 60.8085H32.166L34.8223 50.7073L37.4786 40.6052L45.4483 10.299L48.1046 0.197754H68.628Z" fill="white"/>
<path d="M141.713 0.197754L139.057 10.299L136.4 20.4011L125.774 60.8085H105.251L107.907 50.7073L110.564 40.6052L118.533 10.299L121.19 0.197754H141.713Z" fill="white"/>
<path d="M16.2275 0.197754L18.8838 10.299L21.5409 20.4011L32.1669 60.8085H52.6896L50.0333 50.7073L47.377 40.6052L39.4073 10.299L36.751 0.197754H16.2275Z" fill="white"/>
<path d="M92.8367 60.8083H68.6298L60.6602 30.5029H84.8671L87.5234 40.605L92.8367 60.8083Z" fill="white"/>
<path d="M105.687 0.197754L98.7485 10.299L91.8052 20.4011L84.8666 30.5031H60.666L67.6046 20.4011L74.5479 10.299L81.4865 0.197754H105.687Z" fill="white"/>
<path d="M141.714 0.197754L134.775 10.299L127.832 20.4011L120.893 30.5031H96.6924L103.631 20.4011L110.574 10.299L117.513 0.197754H141.714Z" fill="white"/>
</svg>
