<svg width="654" height="79" viewBox="0 0 654 79" fill="none" xmlns="http://www.w3.org/2000/svg">
<mask id="path-1-inside-1_603_1402" fill="white">
<path d="M661.248 0.671387L0.0498047 19.5215L662.828 17.5513"/>
</mask>
<path d="M661.248 0.671387L0.0498047 19.5215L662.828 17.5513" fill="#2A2A2D"/>
<path d="M0.0498047 19.5215L0.0213073 18.5219L0.0527773 20.5215L0.0498047 19.5215ZM661.22 -0.328207L0.0213073 18.5219L0.0783021 20.5211L661.277 1.67098L661.22 -0.328207ZM0.0527773 20.5215L662.831 18.5513L662.825 16.5513L0.046832 18.5215L0.0527773 20.5215Z" fill="black" mask="url(#path-1-inside-1_603_1402)"/>
<mask id="path-3-inside-2_603_1402" fill="white">
<path d="M661.248 47.3118L168.893 48.772L661.248 34.7319"/>
</mask>
<path d="M661.248 47.3118L168.893 48.772L661.248 34.7319" fill="#2A2A2D"/>
<path d="M168.893 48.772L168.864 47.7724L168.896 49.772L168.893 48.772ZM661.245 46.3118L168.89 47.772L168.896 49.772L661.251 48.3118L661.245 46.3118ZM168.921 49.7716L661.277 35.7315L661.22 33.7323L168.864 47.7724L168.921 49.7716Z" fill="black" mask="url(#path-3-inside-2_603_1402)"/>
<mask id="path-5-inside-3_603_1402" fill="white">
<path d="M661.248 77.0513L337.735 78.0215L661.248 68.7915"/>
</mask>
<path d="M661.248 77.0513L337.735 78.0215L661.248 68.7915" fill="#2A2A2D"/>
<path d="M337.735 78.0215L337.707 77.0219L337.738 79.0215L337.735 78.0215ZM661.245 76.0513L337.732 77.0215L337.738 79.0215L661.251 78.0513L661.245 76.0513ZM337.764 79.0211L661.276 69.7911L661.219 67.7919L337.707 77.0219L337.764 79.0211Z" fill="black" mask="url(#path-5-inside-3_603_1402)"/>
</svg>
