<svg width="1440" height="198" viewBox="0 0 1440 198" fill="none" xmlns="http://www.w3.org/2000/svg">
<path fill-rule="evenodd" clip-rule="evenodd" d="M56.0172 192.514L-32.1512 197.661L-67.7191 0.229233H25.6825L56.0172 192.514ZM109.679 0.229233L139.247 187.656L244.627 181.506L216.102 0.229233H109.679ZM299.894 0.229233L327.657 176.659L424.412 171.012L396.717 0.229233H299.894ZM483.071 0.229233L509.957 166.019L604.768 160.485L579.936 0.229233H483.071ZM662.449 0.229233L686.542 155.712L785.803 149.918L764.177 0.229233H662.449ZM841.111 0.229233L862.093 145.465L967.464 139.315L946.071 0.229233H841.111ZM1027.98 0.229233L1048.64 134.577L1137.23 129.406L1119.31 0.229233H1027.98ZM1193.18 0.229233L1210.51 125.129L1314.96 119.032L1298.14 0.229233H1193.18ZM1373.54 0.229233L1389.75 114.667L1505.42 107.916L1483.26 0.229233H1373.54Z" fill="#FFBE00"/>
</svg>
