<svg width="1440" height="198" viewBox="0 0 1440 198" fill="none" xmlns="http://www.w3.org/2000/svg">
<path fill-rule="evenodd" clip-rule="evenodd" d="M1381.68 5.45531L1469.85 0.309082L1505.42 197.74H1412.02L1381.68 5.45531ZM1328.02 197.74L1298.45 10.3133L1193.08 16.4641L1221.6 197.74H1328.02ZM1137.81 197.74L1110.05 21.3104L1013.29 26.9578L1040.99 197.74H1137.81ZM954.631 197.74L927.745 31.9509L832.934 37.4848L857.766 197.74H954.631ZM775.253 197.74L751.16 42.2578L651.899 48.0514L673.525 197.74H775.253ZM596.592 197.74L575.609 52.5043L470.238 58.6547L491.631 197.74H596.592ZM409.726 197.74L389.061 63.3928L300.475 68.5634L318.396 197.74H409.726ZM244.522 197.74L227.194 72.8406L122.74 78.9374L139.564 197.74H244.522ZM64.1582 197.74L47.9529 83.3026L-67.7197 90.0542L-45.5574 197.74H64.1582Z" fill="#FFBE00"/>
</svg>
