<svg width="159" height="51" viewBox="0 0 159 51" fill="none" xmlns="http://www.w3.org/2000/svg">
<path d="M13.5707 17.5806C13.8807 17.3206 14.1607 17.0306 14.4107 16.7306V19.1406H27.8707V17.4906C28.0107 17.6206 28.1507 17.7506 28.3007 17.8706C29.7507 19.0306 31.5507 19.6206 33.6407 19.6206C35.7307 19.6206 37.4207 19.0406 38.7507 17.9006C40.1407 16.7006 40.8807 15.0706 40.8807 13.1806C40.8807 12.6706 40.8307 12.1806 40.7207 11.7306C40.6007 11.2206 40.4107 10.7506 40.1407 10.3206C39.9207 9.97065 39.6807 9.65065 39.4107 9.36065C39.2007 9.14065 38.9607 8.93065 38.7007 8.75065L40.7207 8.05064L40.6107 6.96065H42.6007V19.1206H48.2007V6.96065H52.7507V1.53065H38.0507V2.41064C37.4907 2.00064 36.8007 1.67065 35.9407 1.42065C35.1307 1.18065 34.2307 1.06065 33.2607 1.04065H33.1507C31.2007 1.04065 29.5507 1.59065 28.2407 2.67065C28.0807 2.80065 27.9407 2.94064 27.8007 3.08064V1.53065H14.3907V4.24065C14.1007 3.79065 13.7307 3.37065 13.2807 3.00065C12.1107 2.03065 10.6607 1.53065 8.96069 1.53065H1.2207V19.1206H8.93069C10.7507 19.1206 12.3107 18.5906 13.5507 17.5606L13.5707 17.5806ZM31.4907 12.4606C31.4907 12.4606 31.5507 12.4606 31.5707 12.4706C31.7607 12.5006 32.0407 12.5306 32.3907 12.5706C32.6507 12.6006 32.8507 12.6306 32.9907 12.6606L33.1007 12.6806C33.5607 12.7306 33.9607 12.8106 34.2907 12.9006C34.5907 12.9806 34.8807 13.1006 35.1407 13.2306C35.2007 13.2606 35.2407 13.2906 35.2507 13.3906C35.2507 13.6206 35.2007 13.7206 35.0307 13.8606C34.7507 14.0906 34.2807 14.2006 33.6507 14.2006C32.9107 14.2006 32.3507 14.0306 31.9307 13.6906C31.6107 13.4206 31.4807 13.1606 31.4807 12.7506V12.4606H31.4907ZM34.1407 7.26064L34.0007 7.24065C33.8707 7.23065 33.6707 7.21065 33.3907 7.17065C33.1207 7.14065 32.9207 7.11064 32.7807 7.09064L32.1607 6.99065C32.0307 6.97065 31.9307 6.95065 31.8507 6.93065C31.8307 6.93065 31.8107 6.92064 31.7907 6.91064C31.8107 6.89064 31.8407 6.87065 31.8707 6.84064C32.1607 6.62065 32.6207 6.51065 33.2107 6.50065C33.5907 6.50065 33.9107 6.54065 34.1807 6.61065C34.4907 6.69065 34.6007 6.77065 34.6207 6.78065C34.7107 6.84065 34.7807 6.91064 34.8407 6.98064C34.9207 7.08064 34.9407 7.13065 34.9407 7.14065C34.9707 7.23065 34.9907 7.31064 35.0007 7.41064C34.7407 7.36064 34.4507 7.32065 34.1307 7.27065L34.1407 7.26064ZM19.9607 13.7206V12.8806H25.8807V13.1806C25.8807 13.3606 25.9007 13.5406 25.9207 13.7206H19.9607ZM26.1107 7.47065H19.9607V6.98064H26.1107C26.1107 7.07064 26.1007 7.16065 26.1007 7.25065C26.1007 7.32065 26.1007 7.39065 26.1107 7.47065ZM10.0007 13.1706C10.0007 13.2506 10.0007 13.2906 9.8407 13.4206C9.7507 13.4906 9.4607 13.7206 8.7207 13.7206H6.83069V12.6706H8.7207C9.2307 12.6706 9.60069 12.7706 9.86069 12.9706C10.0007 13.0707 10.0007 13.1006 10.0007 13.1806V13.1706ZM8.7807 7.24065H6.83069V6.98064H8.7807C9.0707 6.98064 9.3007 7.02064 9.5007 7.12064C9.2907 7.21064 9.0007 7.24065 8.7807 7.24065Z" fill="#2A2A2D"/>
<path d="M62.8608 14.7909H64.1008C66.1608 14.7909 67.9108 14.1909 69.2908 13.0009C69.5908 12.7409 69.8608 12.4609 70.1008 12.1609V19.1409H75.7008V14.0109H76.9308L80.1508 19.1409H86.8008L82.5808 12.6209C82.8008 12.4509 83.0108 12.2609 83.2108 12.0709C83.5108 14.0009 84.3408 15.6609 85.7008 17.0209C87.4508 18.7609 89.6908 19.6409 92.3708 19.6409C95.0508 19.6409 97.3008 18.7609 99.0508 17.0309C99.5308 16.5509 99.9508 16.0309 100.301 15.4809V19.1609H106.451C109.291 19.1609 111.661 18.3709 113.481 16.8109C114.241 16.1609 114.851 15.4209 115.311 14.6009C115.651 15.6209 116.191 16.5309 116.921 17.3209C118.321 18.8409 120.201 19.6409 122.361 19.6409C124.521 19.6409 126.381 18.8409 127.781 17.3209C128.331 16.7209 128.771 16.0509 129.101 15.3209C129.451 15.9009 129.861 16.4409 130.351 16.9409C132.041 18.6509 134.201 19.5709 136.781 19.6509H137.071C137.991 19.6509 138.891 19.5109 139.741 19.2309C140.661 18.9209 141.451 18.5309 142.091 18.0409C142.681 17.5909 143.221 17.0709 143.701 16.5009C144.161 15.9409 144.511 15.4309 144.761 14.9509C145.001 14.4909 145.181 14.0709 145.311 13.6709L145.941 11.6909L140.911 10.2909L145.531 8.62092L145.281 7.00092H147.101V19.1609H152.701V7.00092H157.251V1.57092H142.551V2.88092C142.431 2.78092 142.311 2.67092 142.181 2.58092C141.531 2.12092 140.761 1.76092 139.801 1.48092C138.921 1.22092 137.981 1.09092 136.981 1.09092H136.811C134.231 1.12092 132.051 2.03092 130.341 3.78092C130.161 3.97092 129.991 4.16092 129.831 4.35092V1.57092H124.231V11.6509C124.231 12.5209 124.031 13.1709 123.631 13.6509C123.291 14.0509 122.911 14.2209 122.341 14.2209C121.771 14.2209 121.411 14.0509 121.061 13.6209C120.631 13.0909 120.431 12.4709 120.431 11.6509V1.57092H114.831V5.40092C114.451 4.87092 114.001 4.37092 113.481 3.92092C111.671 2.36092 109.301 1.56092 106.441 1.56092H100.291V5.26092C99.9408 4.71092 99.5308 4.19092 99.0508 3.71092C97.3008 1.97092 95.0508 1.08092 92.3708 1.08092C89.6908 1.08092 87.4608 1.96092 85.7108 3.70092C85.2208 4.18092 84.8108 4.71092 84.4608 5.27092C84.1108 4.52092 83.6108 3.84092 82.9408 3.26092C81.6508 2.13092 80.0208 1.56092 78.0908 1.56092H70.1008V4.19092C69.8608 3.89092 69.5908 3.61092 69.2908 3.35092C67.9108 2.17092 66.1708 1.57092 64.1208 1.57092H57.3008V19.1609H62.8608V14.8009V14.7909ZM134.391 7.51092C135.031 6.82092 135.811 6.50092 136.851 6.50092C137.691 6.50092 138.421 6.69092 139.071 7.09092C139.581 7.40092 139.861 7.75092 139.981 8.25092L140.451 10.2109L139.951 12.1209C139.801 12.6909 139.461 13.1509 138.881 13.5609C138.261 14.0009 137.591 14.2209 136.851 14.2209C135.831 14.2209 135.051 13.9009 134.411 13.2109C133.741 12.4809 133.401 11.5509 133.391 10.3809C133.391 9.18092 133.721 8.25092 134.391 7.53092V7.51092ZM109.751 12.7309C108.961 13.3909 107.881 13.7209 106.451 13.7209H105.911V6.98092H106.451C107.881 6.98092 108.951 7.31092 109.751 7.97092C110.451 8.56092 110.781 9.32092 110.781 10.3509C110.781 11.3809 110.471 12.1309 109.761 12.7209L109.751 12.7309ZM89.7108 7.54092C90.4108 6.83092 91.2508 6.50092 92.3708 6.50092C93.4908 6.50092 94.3508 6.83092 95.0408 7.54092C95.7508 8.27092 96.0808 9.16092 96.0808 10.3609C96.0808 11.5609 95.7508 12.4309 95.0508 13.1609C94.3608 13.8709 93.5108 14.2009 92.3908 14.2009C91.2608 14.2009 90.4108 13.8509 89.7108 13.1409C89.0008 12.4209 88.6708 11.5409 88.6708 10.3609C88.6708 9.18092 89.0008 8.27092 89.7108 7.55092V7.54092ZM77.9808 6.98092C78.5308 6.98092 78.9308 7.09092 79.2008 7.31092C79.3208 7.41092 79.4108 7.51092 79.4108 7.84092C79.4108 8.03092 79.3808 8.12092 79.2008 8.26092C78.9208 8.48092 78.5208 8.59092 77.9808 8.59092H75.7008V6.98092H77.9808ZM62.8608 6.98092H63.8908C64.6008 6.98092 65.1308 7.13092 65.5108 7.44092C65.7808 7.66092 65.8808 7.85092 65.8808 8.21092C65.8808 8.47092 65.8308 8.66092 65.5408 8.89092C65.1508 9.20092 64.6208 9.34092 63.8908 9.34092H62.8608V6.98092Z" fill="#2A2A2D"/>
<path d="M44.2312 24.0406H24.8112V29.2906C24.3912 28.7106 23.9312 28.1606 23.4012 27.6506C20.9712 25.3106 17.8212 24.1306 14.0312 24.1306C10.2412 24.1306 7.0912 25.3206 4.6712 27.6606C2.2312 30.0206 0.991211 33.1006 0.991211 36.8206C0.991211 40.5406 2.2312 43.6206 4.6712 45.9806C7.0912 48.3206 10.2412 49.5106 14.0312 49.5106C17.8212 49.5106 20.9912 48.3206 23.4112 45.9806C23.9312 45.4706 24.3912 44.9306 24.8012 44.3506V49.2707L33.5812 49.4306L33.6112 40.6506L44.2812 40.6206V32.1206H44.2212V24.0506L44.2312 24.0406ZM9.93121 35.5706C9.99121 35.2306 10.0912 34.9206 10.2212 34.6406C10.3612 34.3306 10.5312 34.0506 10.7312 33.7806C10.9012 33.5406 11.1112 33.3306 11.3312 33.1506C11.5712 32.9606 11.8212 32.8007 12.0912 32.6607C12.3512 32.5307 12.6512 32.4306 12.9812 32.3606C13.3312 32.2806 13.7012 32.2506 14.0612 32.2506C14.9112 32.2506 15.6412 32.4306 16.2912 32.8106C16.9212 33.1806 17.4012 33.6707 17.7512 34.3307C18.1212 35.0307 18.3012 35.8206 18.3012 36.7606C18.3012 37.7006 18.1212 38.4906 17.7512 39.1806C17.4012 39.8406 16.9212 40.3306 16.2912 40.7006C15.6412 41.0806 14.9112 41.2606 14.0812 41.2606C12.7712 41.2506 11.7912 40.8606 11.0012 40.0306C10.2012 39.2106 9.8212 38.1306 9.8212 36.7506C9.8212 36.3406 9.86121 35.9406 9.93121 35.5606V35.5706Z" fill="#2A2A2D"/>
<path d="M13.4112 18.9309V20.1409H28.8712V19.4609C30.2512 20.2309 31.8512 20.6309 33.6412 20.6309C35.9512 20.6309 37.8912 19.9709 39.4012 18.6709C40.4912 17.7309 41.2312 16.5709 41.6112 15.2509V20.1509H49.2112V7.99092H53.7612V0.560921H37.0612V0.780922C36.8012 0.680922 36.5212 0.580923 36.2312 0.500923C35.3412 0.240923 34.3512 0.100917 33.2812 0.0809174H33.1612C31.5212 0.0809174 30.0612 0.430918 28.8112 1.12092V0.560921H13.4012V1.85092C12.1512 0.990922 10.6712 0.560921 8.9812 0.560921H0.241211V20.1509H8.9512C10.6412 20.1509 12.1412 19.7409 13.4112 18.9409V18.9309ZM41.6112 8.81092V11.1709C41.4612 10.6809 41.2612 10.2209 41.0012 9.80092C40.8712 9.58092 40.7212 9.38092 40.5712 9.18092L41.6112 8.82092V8.81092Z" fill="#2A2A2D"/>
<path d="M63.8605 15.7909H64.1005C66.0105 15.7909 67.6905 15.3209 69.1005 14.4009V20.1509H76.7006V15.5309L79.6005 20.1509H88.6406L88.5405 19.9909C89.7105 20.4209 90.9906 20.6309 92.3806 20.6309C95.1106 20.6309 97.4405 19.8009 99.3105 18.1509V20.1409H106.461C109.551 20.1409 112.131 19.2709 114.141 17.5509C114.501 17.2409 114.831 16.9109 115.131 16.5709C115.431 17.0809 115.781 17.5509 116.181 17.9809C117.771 19.7109 119.911 20.6309 122.361 20.6309C124.811 20.6309 126.931 19.7109 128.521 17.9809C128.771 17.7109 128.991 17.4309 129.201 17.1309C129.341 17.3009 129.491 17.4609 129.651 17.6209C131.531 19.5209 133.921 20.5409 136.781 20.6309H137.091C138.121 20.6309 139.131 20.4709 140.071 20.1609C141.091 19.8209 141.981 19.3709 142.701 18.8209C143.361 18.3209 143.951 17.7509 144.481 17.1109C144.981 16.4909 145.371 15.9309 145.651 15.4009C145.841 15.0509 145.991 14.7109 146.121 14.3909V20.1509H153.721V7.99092H158.271V0.560921H141.571V1.06092C141.131 0.850921 140.641 0.670918 140.111 0.510918C139.141 0.220918 138.101 0.0809174 137.001 0.0809174H136.821C134.541 0.110917 132.541 0.760918 130.861 2.01092V0.560921H123.261V11.6409C123.261 12.2609 123.141 12.7009 122.891 12.9909C122.771 13.1409 122.681 13.2009 122.361 13.2009C122.081 13.2009 122.001 13.1509 121.861 12.9709C121.581 12.6209 121.451 12.2109 121.451 11.6309V0.550919H113.851V2.90092C111.891 1.34092 109.411 0.550919 106.461 0.550919H99.3105V2.55092C97.4405 0.900919 95.1106 0.0709229 92.3806 0.0709229C89.4306 0.0709229 86.9606 1.05092 85.0106 2.99092C84.8506 3.15092 84.6905 3.32092 84.5505 3.49092C84.2705 3.14092 83.9605 2.81092 83.6105 2.50092C82.1305 1.21092 80.2805 0.550919 78.1005 0.550919H69.1105V1.94092C67.7005 1.02092 66.0306 0.550919 64.1306 0.550919H56.3105V20.1409H63.8705V15.7809L63.8605 15.7909ZM146.111 9.45092V10.6809L144.191 10.1509L146.111 9.46092V9.45092ZM135.131 8.19092C135.581 7.71092 136.091 7.50092 136.851 7.50092C137.511 7.50092 138.051 7.64092 138.551 7.94092C138.901 8.15092 138.961 8.31092 139.001 8.48092L139.411 10.1909L138.971 11.8509C138.911 12.0909 138.781 12.3809 138.291 12.7209C137.831 13.0409 137.371 13.1909 136.841 13.1909C136.091 13.1909 135.581 12.9809 135.131 12.5009C134.631 11.9609 134.391 11.2709 134.381 10.3509C134.381 9.41092 134.611 8.72092 135.111 8.18092L135.131 8.19092ZM106.911 8.00092C107.861 8.06092 108.581 8.30092 109.111 8.74092C109.581 9.14092 109.781 9.62092 109.781 10.3609C109.781 11.2309 109.521 11.6309 109.121 11.9609C108.591 12.4009 107.871 12.6409 106.921 12.7009V7.99092L106.911 8.00092ZM90.4305 8.25092C90.9405 7.73092 91.5206 7.51092 92.3806 7.51092C93.2406 7.51092 93.8306 7.73092 94.3306 8.25092C94.8506 8.79092 95.0806 9.44092 95.0806 10.3709C95.0806 11.3009 94.8506 11.9409 94.3306 12.4709C93.8306 12.9809 93.2405 13.2109 92.4005 13.2109C91.5305 13.2109 90.9405 12.9809 90.4205 12.4509C89.9005 11.9209 89.6705 11.2809 89.6705 10.3709C89.6705 9.46092 89.9005 8.79092 90.4305 8.25092ZM63.8605 7.99092H63.8906C64.2806 7.99092 64.5805 8.05092 64.8105 8.18092C64.6005 8.29092 64.2906 8.35092 63.8906 8.35092H63.8605V7.99092Z" fill="#2A2A2D"/>
<path d="M45.231 23.0406H23.811V26.6706C21.231 24.3206 17.941 23.1306 14.031 23.1306C10.121 23.1306 6.59096 24.4106 3.98096 26.9406C1.34096 29.4906 0.000976562 32.8206 0.000976562 36.8206C0.000976562 40.8206 1.34096 44.1406 3.98096 46.7006C6.59096 49.2306 9.97098 50.5106 14.031 50.5106C18.091 50.5106 21.241 49.3206 23.811 46.9806V50.2506L34.581 50.4407L34.611 41.6406L45.2809 41.6106V32.1106L45.2209 31.1106V23.0406H45.231ZM16.881 38.7106C16.621 39.2006 16.271 39.5606 15.801 39.8406C15.311 40.1306 14.751 40.2707 14.101 40.2707C13.071 40.2607 12.331 39.9806 11.731 39.3506C11.111 38.7106 10.831 37.8907 10.831 36.7707C10.831 36.4207 10.861 36.0807 10.921 35.7707C10.971 35.5107 11.041 35.2807 11.141 35.0807C11.251 34.8407 11.391 34.6106 11.551 34.4006C11.671 34.2306 11.821 34.0806 11.981 33.9506C12.161 33.8106 12.351 33.6906 12.551 33.5807C12.741 33.4907 12.961 33.4106 13.211 33.3606C13.491 33.3006 13.791 33.2707 14.091 33.2707C14.761 33.2707 15.331 33.4106 15.821 33.7006C16.291 33.9706 16.641 34.3306 16.901 34.8206C17.191 35.3706 17.331 36.0106 17.331 36.7806C17.331 37.5506 17.191 38.1906 16.901 38.7306L16.881 38.7106Z" fill="#2A2A2D"/>
<path d="M147.731 22.9512L147.671 30.7812L145.401 30.7612L145.341 22.9512H135.581L134.581 23.0112H114.841V23.1212H108.291L108.321 29.1612L104.511 23.1212H94.4106V26.8512C91.8006 24.3812 88.4407 23.1212 84.4307 23.1212C80.4207 23.1212 77.2007 24.3312 74.6207 26.7012V22.8912H65.5906L60.7607 28.4112L56.0707 22.9412H46.9706L46.9307 50.2912L57.7106 50.1612L57.7507 40.7812L60.6207 44.1512L63.8007 40.6212L63.8207 50.1712L74.5306 50.2312V46.8112C77.1306 49.2412 80.4607 50.4712 84.4407 50.4712C88.4207 50.4712 91.8207 49.2212 94.4207 46.7612V50.1612H105.091L105.141 44.1212L108.901 50.1612H119.041V33.1712H121.261V50.2812H132.271V33.1712H134.581V50.2212H145.371V41.2212H147.711V50.2212H158.491V22.9312H147.731V22.9512ZM87.2806 38.7012C87.0206 39.1912 86.6707 39.5512 86.2007 39.8312C85.7107 40.1212 85.1507 40.2612 84.5007 40.2612C83.4607 40.2512 82.7307 39.9712 82.1307 39.3412C81.5107 38.7012 81.2307 37.8812 81.2307 36.7612C81.2307 36.4112 81.2607 36.0712 81.3207 35.7612C81.3707 35.5012 81.4406 35.2712 81.5306 35.0712C81.6406 34.8312 81.7807 34.5912 81.9407 34.3812C82.0707 34.2112 82.2007 34.0612 82.3707 33.9312C82.5407 33.7912 82.7307 33.6712 82.9407 33.5712C83.1307 33.4812 83.3506 33.4012 83.6006 33.3512C83.8806 33.2912 84.1806 33.2612 84.4706 33.2612C85.1406 33.2612 85.7107 33.4012 86.2007 33.6912C86.6707 33.9712 87.0206 34.3212 87.2806 34.8112C87.5706 35.3612 87.7206 36.0012 87.7206 36.7712C87.7206 37.5412 87.5807 38.1812 87.2906 38.7212L87.2806 38.7012Z" fill="#2A2A2D"/>
<path d="M148.721 23.9512L148.661 31.7912L144.411 31.7612L144.351 23.9512H135.581V24.0112H115.841V24.1212H109.301L109.341 32.6512L103.961 24.1212H95.4106V29.5512C94.9506 28.8712 94.4107 28.2312 93.8007 27.6412C91.3707 25.3012 88.2207 24.1212 84.4307 24.1212C80.6407 24.1212 77.4907 25.3112 75.0707 27.6512C74.5207 28.1912 74.0306 28.7612 73.6006 29.3712L73.6207 23.8912H66.0406L60.7407 29.9412L55.6006 23.9512H47.9606L47.9307 49.2912L56.7106 49.1912L56.7507 38.1012L60.6307 42.6612L64.7906 38.0512L64.8107 49.2012L73.5306 49.2512L73.5507 44.1712C73.9907 44.8112 74.5007 45.4112 75.0807 45.9712C77.5007 48.3112 80.6507 49.5012 84.4407 49.5012C88.2307 49.5012 91.4007 48.3112 93.8207 45.9712C94.4307 45.3812 94.9607 44.7512 95.4207 44.0812V49.1912H104.101L104.171 40.7112L109.461 49.1912H118.041V32.2012H122.261V49.3112H131.271V32.2012H135.581V49.2512H144.371V40.2512H148.711V49.2512H157.491V23.9612H148.721V23.9512ZM80.3207 35.5612C80.3807 35.2212 80.4807 34.9112 80.6107 34.6312C80.7507 34.3212 80.9307 34.0312 81.1207 33.7712C81.3007 33.5312 81.4906 33.3312 81.7206 33.1412C81.9506 32.9512 82.2107 32.7912 82.4807 32.6612C82.7407 32.5312 83.0507 32.4312 83.3707 32.3612C83.7207 32.2812 84.0807 32.2512 84.4507 32.2512C85.3007 32.2512 86.0307 32.4312 86.6807 32.8112C87.3107 33.1812 87.7907 33.6712 88.1407 34.3312C88.5107 35.0312 88.6907 35.8212 88.6907 36.7612C88.6907 37.7012 88.5107 38.4912 88.1407 39.1812C87.7907 39.8412 87.3107 40.3312 86.6807 40.7012C86.0307 41.0812 85.3006 41.2612 84.4706 41.2612C83.1606 41.2512 82.1807 40.8612 81.3907 40.0312C80.5907 39.2112 80.2106 38.1312 80.2106 36.7512C80.2106 36.3412 80.2507 35.9412 80.3207 35.5612Z" fill="#2A2A2D"/>
<path d="M2.24048 16.1413V2.55135H7.98047C9.20047 2.55135 10.2105 2.88135 11.0205 3.55135C11.8205 4.22135 12.2205 5.07135 12.2205 6.09135C12.2205 6.76135 12.0205 7.36135 11.6105 7.88135C11.2105 8.41135 10.6805 8.75135 10.0405 8.92135C10.8005 9.10135 11.4105 9.50135 11.8905 10.1114C12.3705 10.7214 12.6005 11.4313 12.6005 12.2313C12.6005 13.3613 12.1605 14.2913 11.2805 15.0313C10.4005 15.7713 9.29049 16.1313 7.94049 16.1313H2.23047L2.24048 16.1413ZM3.84048 3.98135V8.24135H7.79047C8.63047 8.24135 9.31047 8.04134 9.83047 7.65134C10.3605 7.26134 10.6205 6.75135 10.6205 6.12135C10.6205 5.49135 10.3505 4.99135 9.82047 4.59135C9.29047 4.19135 8.61047 3.98135 7.79047 3.98135H3.84048ZM7.73047 9.67135H3.84048V14.7214H7.73047C8.68047 14.7214 9.46047 14.4813 10.0805 14.0014C10.7005 13.5214 11.0105 12.9114 11.0105 12.1814C11.0105 11.4514 10.7005 10.8513 10.0805 10.3813C9.46047 9.91135 8.68047 9.68135 7.73047 9.68135V9.67135Z" fill="#FFB700"/>
<path d="M16.9702 14.7214H24.8701V16.1513H15.4102V2.56135H24.8201V3.99135H16.9702V8.48135H24.8301V9.87135L16.9702 9.89135V14.7313V14.7214Z" fill="#FFB700"/>
<path d="M36.4507 15.3913C35.4907 16.2113 34.2207 16.6213 32.6407 16.6213C31.0607 16.6213 29.6506 16.1813 28.5506 15.3113C27.4606 14.4413 26.9106 13.3813 26.8906 12.1513L28.4906 11.7513C28.4906 12.7513 28.8806 13.5813 29.6606 14.2313C30.4406 14.8813 31.4406 15.2013 32.6606 15.2013C33.7706 15.2013 34.6406 14.9413 35.2906 14.4213C35.9406 13.9013 36.2607 13.2213 36.2607 12.3913C36.2607 11.9513 36.1607 11.5713 35.9507 11.2413C35.7407 10.9113 35.4506 10.6513 35.0606 10.4513C34.6706 10.2513 34.2607 10.0913 33.8307 9.97135C33.3907 9.85135 32.8907 9.75134 32.3307 9.69134C32.1807 9.66134 31.9506 9.63134 31.6606 9.59134C31.3106 9.55134 31.0506 9.52135 30.8806 9.49134C30.7106 9.46134 30.4706 9.42135 30.1606 9.36135C29.8506 9.30135 29.6107 9.25134 29.4507 9.20134C29.2807 9.15134 29.0706 9.07134 28.8206 8.98134C28.5706 8.88134 28.3806 8.78135 28.2406 8.68135C28.1006 8.58135 27.9506 8.45135 27.7906 8.28135C27.6206 8.12135 27.5006 7.94135 27.4106 7.75135C27.3306 7.56135 27.2607 7.33134 27.2007 7.08134C27.1407 6.82134 27.1106 6.55135 27.1106 6.25135C27.1106 5.03135 27.5906 4.02134 28.5406 3.23134C29.4906 2.44134 30.7206 2.05134 32.2406 2.06134C33.0406 2.07134 33.7507 2.17135 34.3907 2.36135C35.0307 2.55135 35.5306 2.78134 35.9006 3.05134C36.2706 3.33134 36.5906 3.64134 36.8406 3.98134C37.1006 4.33134 37.2806 4.64134 37.3806 4.91134C37.4806 5.18134 37.5506 5.44135 37.5706 5.68135L36.0107 6.22135C35.9807 5.98135 35.9306 5.74135 35.8606 5.50135C35.7806 5.26135 35.6506 5.02134 35.4606 4.77134C35.2706 4.52134 35.0506 4.30135 34.7806 4.11135C34.5106 3.92135 34.1606 3.77134 33.7206 3.66134C33.2806 3.54134 32.7906 3.49135 32.2406 3.49135C31.1906 3.50135 30.3407 3.75134 29.7007 4.23134C29.0607 4.71134 28.7406 5.34135 28.7406 6.11135C28.7406 6.30135 28.7606 6.48134 28.8106 6.65134C28.8606 6.82134 28.9306 6.96134 29.0306 7.08134C29.1306 7.20134 29.2307 7.31134 29.3307 7.40134C29.4307 7.49134 29.5707 7.57135 29.7607 7.64135C29.9507 7.71135 30.1206 7.77134 30.2506 7.81134C30.3806 7.86134 30.5806 7.90134 30.8506 7.94134C31.1206 7.98134 31.3206 8.02134 31.4806 8.05134C31.6306 8.08134 31.8706 8.11134 32.1706 8.15134C32.4806 8.19134 32.7106 8.21134 32.8606 8.23134C33.2106 8.28134 33.5206 8.33134 33.7906 8.38134C34.0606 8.43134 34.3606 8.50134 34.6906 8.58134C35.0106 8.66134 35.3006 8.76135 35.5506 8.86135C35.8006 8.96135 36.0506 9.08134 36.3106 9.23134C36.5706 9.37134 36.7906 9.54134 36.9706 9.73134C37.1506 9.92134 37.3106 10.1413 37.4606 10.3813C37.6106 10.6213 37.7206 10.8913 37.7906 11.1913C37.8606 11.4913 37.9006 11.8213 37.9006 12.1813C37.9006 13.4913 37.4206 14.5613 36.4606 15.3813L36.4507 15.3913Z" fill="#FFB700"/>
<path d="M43.6105 3.98135H39.0605V2.55135H49.7606V3.98135H45.2105V16.1413H43.6105V3.98135Z" fill="#FFB700"/>
<path d="M59.8608 11.7914V16.1513H58.3008V2.56135H63.1208C64.6908 2.56135 65.9808 2.99135 66.9808 3.86135C67.9908 4.73135 68.4908 5.84135 68.4908 7.19135C68.4908 8.54135 67.9908 9.63135 66.9808 10.5014C65.9708 11.3714 64.6808 11.8013 63.1008 11.8013H59.8608V11.7914ZM59.8608 3.98135V10.3413H62.8908C64.0708 10.3413 65.0408 10.0413 65.7808 9.45135C66.5308 8.86135 66.8908 8.10135 66.8808 7.18135C66.8808 6.24135 66.5108 5.47135 65.7608 4.88135C65.0108 4.28135 64.0608 3.98135 62.8908 3.98135H59.8608Z" fill="#FFB700"/>
<path d="M72.6909 16.1413H71.0908V2.55135H77.0809C78.5209 2.55135 79.7008 2.95135 80.6208 3.75135C81.5408 4.55135 82.0009 5.58135 82.0009 6.82135C82.0009 7.77135 81.6909 8.62135 81.0609 9.35135C80.4309 10.0913 79.6308 10.5613 78.6508 10.7713L82.1208 16.1313H80.2509L77.0308 11.0014H72.6909V16.1313V16.1413ZM72.6909 3.98135V9.59135H76.9708C77.9708 9.59135 78.7909 9.33135 79.4409 8.82135C80.0809 8.31135 80.4008 7.64134 80.4008 6.83134C80.4008 5.96134 80.0809 5.26135 79.4509 4.75135C78.8109 4.24135 77.9908 3.98135 76.9708 3.98135H72.6909Z" fill="#FFB700"/>
<path d="M84.0703 9.36167C84.0703 7.23167 84.7503 5.48167 86.1203 4.12167C87.4903 2.76167 89.2403 2.08167 91.3703 2.08167C93.5003 2.08167 95.2703 2.76167 96.6403 4.12167C98.0103 5.48167 98.6903 7.23167 98.6903 9.36167C98.6903 11.4917 98.0103 13.2417 96.6403 14.5917C95.2703 15.9417 93.5103 16.6217 91.3703 16.6217C89.2303 16.6217 87.4703 15.9417 86.1103 14.5917C84.7503 13.2317 84.0703 11.4917 84.0703 9.36167ZM87.2803 5.15166C86.2103 6.25166 85.6703 7.65167 85.6703 9.36167C85.6703 11.0717 86.2103 12.4517 87.2803 13.5417C88.3503 14.6317 89.7203 15.1917 91.3803 15.2017C93.0503 15.2017 94.4203 14.6517 95.4903 13.5517C96.5603 12.4517 97.0903 11.0517 97.0903 9.36167C97.0903 7.67167 96.5603 6.25166 95.4903 5.15166C94.4203 4.05166 93.0503 3.50167 91.3803 3.50167C89.7103 3.50167 88.3603 4.05166 87.2803 5.15166Z" fill="#FFB700"/>
<path d="M101.3 2.55135H105.45C107.83 2.55135 109.74 3.17135 111.18 4.42135C112.63 5.67135 113.35 7.31135 113.35 9.35135C113.35 11.3913 112.62 13.0213 111.17 14.2713C109.72 15.5213 107.81 16.1413 105.44 16.1413H101.29V2.55135H101.3ZM105.45 3.98135H102.91V14.7214H105.45C107.35 14.7214 108.88 14.2413 110.04 13.2613C111.2 12.2913 111.78 10.9914 111.78 9.36135C111.78 7.73135 111.2 6.42135 110.04 5.45135C108.88 4.48135 107.35 3.98135 105.45 3.98135Z" fill="#FFB700"/>
<path d="M125.241 2.55135H126.841V10.6313C126.841 12.3913 126.331 13.8313 125.301 14.9513C124.271 16.0713 122.951 16.6313 121.351 16.6313C119.751 16.6313 118.411 16.0713 117.381 14.9513C116.351 13.8313 115.841 12.3913 115.841 10.6313V2.55135H117.441V10.6313C117.441 11.9013 117.801 12.9813 118.531 13.8713C119.261 14.7613 120.201 15.2013 121.361 15.2013C122.521 15.2013 123.451 14.7814 124.171 13.9314C124.891 13.0814 125.251 11.9813 125.251 10.6313V2.55135H125.241Z" fill="#FFB700"/>
<path d="M139.021 14.1816C139.981 13.5016 140.601 12.6416 140.871 11.6216L142.391 12.0416C142.301 12.3216 142.161 12.6416 141.981 12.9916C141.801 13.3416 141.511 13.7516 141.141 14.2016C140.771 14.6616 140.351 15.0616 139.881 15.4116C139.411 15.7616 138.821 16.0616 138.111 16.3016C137.401 16.5416 136.641 16.6416 135.841 16.6216C133.781 16.5616 132.091 15.8516 130.771 14.5116C129.451 13.1716 128.791 11.4516 128.791 9.3516C128.791 7.2516 129.451 5.5116 130.781 4.1516C132.111 2.7916 133.801 2.0916 135.841 2.0716C136.701 2.0616 137.501 2.1616 138.231 2.3816C138.961 2.6016 139.561 2.8716 140.021 3.2016C140.481 3.5316 140.891 3.8916 141.231 4.3016C141.581 4.7016 141.831 5.0716 141.991 5.4016C142.151 5.7316 142.251 6.0216 142.291 6.2816L140.901 6.7816C140.661 5.7616 140.051 4.9616 139.091 4.3816C138.131 3.8016 137.041 3.5016 135.831 3.5016C134.241 3.5016 132.931 4.0516 131.911 5.1516C130.891 6.2516 130.381 7.6516 130.381 9.3616C130.391 11.0616 130.911 12.4516 131.931 13.5516C132.951 14.6516 134.251 15.2016 135.831 15.2016C136.991 15.2016 138.051 14.8616 139.011 14.1816H139.021Z" fill="#FFB700"/>
<path d="M148.101 3.98135H143.551V2.55135H154.251V3.98135H149.701V16.1413H148.101V3.98135Z" fill="#FFB700"/>
<path d="M5.07095 43.5318C3.03095 41.5518 2.00098 38.9818 2.00098 35.8118C2.00098 32.6418 3.02095 30.0718 5.07095 28.0918C7.11095 26.1118 9.77095 25.1218 13.041 25.1218C16.311 25.1218 18.971 26.1118 21.021 28.0918C23.071 30.0718 24.101 32.6418 24.101 35.8118C24.101 38.9818 23.081 41.5518 21.031 43.5318C18.991 45.5118 16.321 46.5018 13.041 46.5018C9.76095 46.5018 7.12095 45.5118 5.07095 43.5318ZM11.561 29.4018C11.071 29.5118 10.621 29.6618 10.211 29.8618C9.80097 30.0618 9.42097 30.3018 9.06097 30.5918C8.71097 30.8818 8.39096 31.2118 8.11096 31.5818C7.83096 31.9518 7.59096 32.3518 7.39096 32.7818C7.19096 33.2118 7.04096 33.6818 6.95096 34.1818C6.85096 34.6918 6.81097 35.2118 6.81097 35.7418C6.81097 37.6518 7.39097 39.2118 8.56097 40.4118C9.72097 41.6118 11.221 42.2218 13.061 42.2418C14.261 42.2418 15.341 41.9618 16.301 41.4118C17.251 40.8618 17.991 40.0918 18.521 39.1018C19.051 38.1218 19.311 36.9918 19.311 35.7318C19.311 34.4718 19.051 33.3518 18.521 32.3618C17.991 31.3818 17.251 30.6118 16.301 30.0518C15.341 29.5018 14.271 29.2218 13.061 29.2218C12.541 29.2218 12.041 29.2718 11.561 29.3818V29.4018Z" fill="#FFB700"/>
<path d="M30.6013 46.3917L25.8213 46.3017V25.0417H41.2413V29.3417H30.5513L30.6113 33.1517L41.3013 33.1217V37.6217L30.6413 37.6517L30.6113 46.3917H30.6013Z" fill="#FFB700"/>
<path d="M53.7214 46.2113L48.9414 46.2714L48.9714 24.9513H53.7014L59.7514 32.0014L65.9714 24.8913H70.6414L70.5514 46.2413L65.8214 46.2113L65.7914 31.8614L59.6914 38.6213L53.7914 31.6914L53.7314 46.2214L53.7214 46.2113Z" fill="#FFB700"/>
<path d="M75.4704 43.5318C73.4304 41.5518 72.4004 38.9818 72.4004 35.8118C72.4004 32.6418 73.4204 30.0718 75.4704 28.0918C77.5104 26.1118 80.1704 25.1218 83.4404 25.1218C86.7104 25.1218 89.3704 26.1118 91.4204 28.0918C93.4704 30.0718 94.5004 32.6418 94.5004 35.8118C94.5004 38.9818 93.4804 41.5518 91.4304 43.5318C89.3904 45.5118 86.7204 46.5018 83.4404 46.5018C80.1604 46.5018 77.5204 45.5118 75.4704 43.5318ZM81.9604 29.4018C81.4704 29.5118 81.0204 29.6618 80.6104 29.8618C80.2004 30.0618 79.8204 30.3018 79.4604 30.5918C79.1104 30.8818 78.7904 31.2118 78.5104 31.5818C78.2304 31.9518 77.9904 32.3518 77.7904 32.7818C77.5904 33.2118 77.4404 33.6818 77.3504 34.1818C77.2504 34.6918 77.2104 35.2118 77.2104 35.7418C77.2104 37.6518 77.7904 39.2118 78.9604 40.4118C80.1204 41.6118 81.6204 42.2218 83.4604 42.2418C84.6604 42.2418 85.7404 41.9618 86.7004 41.4118C87.6604 40.8618 88.3904 40.0918 88.9204 39.1018C89.4404 38.1218 89.7104 36.9918 89.7104 35.7318C89.7104 34.4718 89.4504 33.3518 88.9204 32.3618C88.3904 31.3818 87.6504 30.6118 86.7004 30.0518C85.7404 29.5018 84.6704 29.2218 83.4604 29.2218C82.9404 29.2218 82.4404 29.2718 81.9604 29.3818V29.4018Z" fill="#FFB700"/>
<path d="M110.371 38.6218L110.311 25.1218H115.041V46.1818H109.571L101.231 32.8018L101.121 46.1818H96.4209V25.1218H101.861L110.371 38.6218Z" fill="#FFB700"/>
<path d="M123.261 29.1913H116.841V25.0113H134.691V29.1913H128.271V46.3014H123.261V29.1913Z" fill="#FFB700"/>
<path d="M136.581 46.2409V24.9509H141.371L141.431 32.7409L149.651 32.8009L149.711 24.9509H154.491V46.2409H149.711V37.2409H141.371V46.2409H136.581Z" fill="#FFB700"/>
<path d="M13.5707 17.5806C13.8807 17.3206 14.1607 17.0306 14.4107 16.7306V19.1406H27.8707V17.4906C28.0107 17.6206 28.1507 17.7506 28.3007 17.8706C29.7507 19.0306 31.5507 19.6206 33.6407 19.6206C35.7307 19.6206 37.4207 19.0406 38.7507 17.9006C40.1407 16.7006 40.8807 15.0706 40.8807 13.1806C40.8807 12.6706 40.8307 12.1806 40.7207 11.7306C40.6007 11.2206 40.4107 10.7506 40.1407 10.3206C39.9207 9.97065 39.6807 9.65065 39.4107 9.36065C39.2007 9.14065 38.9607 8.93065 38.7007 8.75065L40.7207 8.05064L40.6107 6.96065H42.6007V19.1206H48.2007V6.96065H52.7507V1.53065H38.0507V2.41064C37.4907 2.00064 36.8007 1.67065 35.9407 1.42065C35.1307 1.18065 34.2307 1.06065 33.2607 1.04065H33.1507C31.2007 1.04065 29.5507 1.59065 28.2407 2.67065C28.0807 2.80065 27.9407 2.94064 27.8007 3.08064V1.53065H14.3907V4.24065C14.1007 3.79065 13.7307 3.37065 13.2807 3.00065C12.1107 2.03065 10.6607 1.53065 8.96069 1.53065H1.2207V19.1206H8.93069C10.7507 19.1206 12.3107 18.5906 13.5507 17.5606L13.5707 17.5806ZM31.4907 12.4606C31.4907 12.4606 31.5507 12.4606 31.5707 12.4706C31.7607 12.5006 32.0407 12.5306 32.3907 12.5706C32.6507 12.6006 32.8507 12.6306 32.9907 12.6606L33.1007 12.6806C33.5607 12.7306 33.9607 12.8106 34.2907 12.9006C34.5907 12.9806 34.8807 13.1006 35.1407 13.2306C35.2007 13.2606 35.2407 13.2906 35.2507 13.3906C35.2507 13.6206 35.2007 13.7206 35.0307 13.8606C34.7507 14.0906 34.2807 14.2006 33.6507 14.2006C32.9107 14.2006 32.3507 14.0306 31.9307 13.6906C31.6107 13.4206 31.4807 13.1606 31.4807 12.7506V12.4606H31.4907ZM34.1407 7.26064L34.0007 7.24065C33.8707 7.23065 33.6707 7.21065 33.3907 7.17065C33.1207 7.14065 32.9207 7.11064 32.7807 7.09064L32.1607 6.99065C32.0307 6.97065 31.9307 6.95065 31.8507 6.93065C31.8307 6.93065 31.8107 6.92064 31.7907 6.91064C31.8107 6.89064 31.8407 6.87065 31.8707 6.84064C32.1607 6.62065 32.6207 6.51065 33.2107 6.50065C33.5907 6.50065 33.9107 6.54065 34.1807 6.61065C34.4907 6.69065 34.6007 6.77065 34.6207 6.78065C34.7107 6.84065 34.7807 6.91064 34.8407 6.98064C34.9207 7.08064 34.9407 7.13065 34.9407 7.14065C34.9707 7.23065 34.9907 7.31064 35.0007 7.41064C34.7407 7.36064 34.4507 7.32065 34.1307 7.27065L34.1407 7.26064ZM19.9607 13.7206V12.8806H25.8807V13.1806C25.8807 13.3606 25.9007 13.5406 25.9207 13.7206H19.9607ZM26.1107 7.47065H19.9607V6.98064H26.1107C26.1107 7.07064 26.1007 7.16065 26.1007 7.25065C26.1007 7.32065 26.1007 7.39065 26.1107 7.47065ZM10.0007 13.1706C10.0007 13.2506 10.0007 13.2906 9.8407 13.4206C9.7507 13.4906 9.4607 13.7206 8.7207 13.7206H6.83069V12.6706H8.7207C9.2307 12.6706 9.60069 12.7706 9.86069 12.9706C10.0007 13.0707 10.0007 13.1006 10.0007 13.1806V13.1706ZM8.7807 7.24065H6.83069V6.98064H8.7807C9.0707 6.98064 9.3007 7.02064 9.5007 7.12064C9.2907 7.21064 9.0007 7.24065 8.7807 7.24065Z" fill="#2A2A2D"/>
<path d="M62.8608 14.7909H64.1008C66.1608 14.7909 67.9108 14.1909 69.2908 13.0009C69.5908 12.7409 69.8608 12.4609 70.1008 12.1609V19.1409H75.7008V14.0109H76.9308L80.1508 19.1409H86.8008L82.5808 12.6209C82.8008 12.4509 83.0108 12.2609 83.2108 12.0709C83.5108 14.0009 84.3408 15.6609 85.7008 17.0209C87.4508 18.7609 89.6908 19.6409 92.3708 19.6409C95.0508 19.6409 97.3008 18.7609 99.0508 17.0309C99.5308 16.5509 99.9508 16.0309 100.301 15.4809V19.1609H106.451C109.291 19.1609 111.661 18.3709 113.481 16.8109C114.241 16.1609 114.851 15.4209 115.311 14.6009C115.651 15.6209 116.191 16.5309 116.921 17.3209C118.321 18.8409 120.201 19.6409 122.361 19.6409C124.521 19.6409 126.381 18.8409 127.781 17.3209C128.331 16.7209 128.771 16.0509 129.101 15.3209C129.451 15.9009 129.861 16.4409 130.351 16.9409C132.041 18.6509 134.201 19.5709 136.781 19.6509H137.071C137.991 19.6509 138.891 19.5109 139.741 19.2309C140.661 18.9209 141.451 18.5309 142.091 18.0409C142.681 17.5909 143.221 17.0709 143.701 16.5009C144.161 15.9409 144.511 15.4309 144.761 14.9509C145.001 14.4909 145.181 14.0709 145.311 13.6709L145.941 11.6909L140.911 10.2909L145.531 8.62092L145.281 7.00092H147.101V19.1609H152.701V7.00092H157.251V1.57092H142.551V2.88092C142.431 2.78092 142.311 2.67092 142.181 2.58092C141.531 2.12092 140.761 1.76092 139.801 1.48092C138.921 1.22092 137.981 1.09092 136.981 1.09092H136.811C134.231 1.12092 132.051 2.03092 130.341 3.78092C130.161 3.97092 129.991 4.16092 129.831 4.35092V1.57092H124.231V11.6509C124.231 12.5209 124.031 13.1709 123.631 13.6509C123.291 14.0509 122.911 14.2209 122.341 14.2209C121.771 14.2209 121.411 14.0509 121.061 13.6209C120.631 13.0909 120.431 12.4709 120.431 11.6509V1.57092H114.831V5.40092C114.451 4.87092 114.001 4.37092 113.481 3.92092C111.671 2.36092 109.301 1.56092 106.441 1.56092H100.291V5.26092C99.9408 4.71092 99.5308 4.19092 99.0508 3.71092C97.3008 1.97092 95.0508 1.08092 92.3708 1.08092C89.6908 1.08092 87.4608 1.96092 85.7108 3.70092C85.2208 4.18092 84.8108 4.71092 84.4608 5.27092C84.1108 4.52092 83.6108 3.84092 82.9408 3.26092C81.6508 2.13092 80.0208 1.56092 78.0908 1.56092H70.1008V4.19092C69.8608 3.89092 69.5908 3.61092 69.2908 3.35092C67.9108 2.17092 66.1708 1.57092 64.1208 1.57092H57.3008V19.1609H62.8608V14.8009V14.7909ZM134.391 7.51092C135.031 6.82092 135.811 6.50092 136.851 6.50092C137.691 6.50092 138.421 6.69092 139.071 7.09092C139.581 7.40092 139.861 7.75092 139.981 8.25092L140.451 10.2109L139.951 12.1209C139.801 12.6909 139.461 13.1509 138.881 13.5609C138.261 14.0009 137.591 14.2209 136.851 14.2209C135.831 14.2209 135.051 13.9009 134.411 13.2109C133.741 12.4809 133.401 11.5509 133.391 10.3809C133.391 9.18092 133.721 8.25092 134.391 7.53092V7.51092ZM109.751 12.7309C108.961 13.3909 107.881 13.7209 106.451 13.7209H105.911V6.98092H106.451C107.881 6.98092 108.951 7.31092 109.751 7.97092C110.451 8.56092 110.781 9.32092 110.781 10.3509C110.781 11.3809 110.471 12.1309 109.761 12.7209L109.751 12.7309ZM89.7108 7.54092C90.4108 6.83092 91.2508 6.50092 92.3708 6.50092C93.4908 6.50092 94.3508 6.83092 95.0408 7.54092C95.7508 8.27092 96.0808 9.16092 96.0808 10.3609C96.0808 11.5609 95.7508 12.4309 95.0508 13.1609C94.3608 13.8709 93.5108 14.2009 92.3908 14.2009C91.2608 14.2009 90.4108 13.8509 89.7108 13.1409C89.0008 12.4209 88.6708 11.5409 88.6708 10.3609C88.6708 9.18092 89.0008 8.27092 89.7108 7.55092V7.54092ZM77.9808 6.98092C78.5308 6.98092 78.9308 7.09092 79.2008 7.31092C79.3208 7.41092 79.4108 7.51092 79.4108 7.84092C79.4108 8.03092 79.3808 8.12092 79.2008 8.26092C78.9208 8.48092 78.5208 8.59092 77.9808 8.59092H75.7008V6.98092H77.9808ZM62.8608 6.98092H63.8908C64.6008 6.98092 65.1308 7.13092 65.5108 7.44092C65.7808 7.66092 65.8808 7.85092 65.8808 8.21092C65.8808 8.47092 65.8308 8.66092 65.5408 8.89092C65.1508 9.20092 64.6208 9.34092 63.8908 9.34092H62.8608V6.98092Z" fill="#2A2A2D"/>
<path d="M44.2312 24.0406H24.8112V29.2906C24.3912 28.7106 23.9312 28.1606 23.4012 27.6506C20.9712 25.3106 17.8212 24.1306 14.0312 24.1306C10.2412 24.1306 7.0912 25.3206 4.6712 27.6606C2.2312 30.0206 0.991211 33.1006 0.991211 36.8206C0.991211 40.5406 2.2312 43.6206 4.6712 45.9806C7.0912 48.3206 10.2412 49.5106 14.0312 49.5106C17.8212 49.5106 20.9912 48.3206 23.4112 45.9806C23.9312 45.4706 24.3912 44.9306 24.8012 44.3506V49.2707L33.5812 49.4306L33.6112 40.6506L44.2812 40.6206V32.1206H44.2212V24.0506L44.2312 24.0406ZM9.93121 35.5706C9.99121 35.2306 10.0912 34.9206 10.2212 34.6406C10.3612 34.3306 10.5312 34.0506 10.7312 33.7806C10.9012 33.5406 11.1112 33.3306 11.3312 33.1506C11.5712 32.9606 11.8212 32.8007 12.0912 32.6607C12.3512 32.5307 12.6512 32.4306 12.9812 32.3606C13.3312 32.2806 13.7012 32.2506 14.0612 32.2506C14.9112 32.2506 15.6412 32.4306 16.2912 32.8106C16.9212 33.1806 17.4012 33.6707 17.7512 34.3307C18.1212 35.0307 18.3012 35.8206 18.3012 36.7606C18.3012 37.7006 18.1212 38.4906 17.7512 39.1806C17.4012 39.8406 16.9212 40.3306 16.2912 40.7006C15.6412 41.0806 14.9112 41.2606 14.0812 41.2606C12.7712 41.2506 11.7912 40.8606 11.0012 40.0306C10.2012 39.2106 9.8212 38.1306 9.8212 36.7506C9.8212 36.3406 9.86121 35.9406 9.93121 35.5606V35.5706Z" fill="#2A2A2D"/>
<path d="M13.4112 18.9309V20.1409H28.8712V19.4609C30.2512 20.2309 31.8512 20.6309 33.6412 20.6309C35.9512 20.6309 37.8912 19.9709 39.4012 18.6709C40.4912 17.7309 41.2312 16.5709 41.6112 15.2509V20.1509H49.2112V7.99092H53.7612V0.560921H37.0612V0.780922C36.8012 0.680922 36.5212 0.580923 36.2312 0.500923C35.3412 0.240923 34.3512 0.100917 33.2812 0.0809174H33.1612C31.5212 0.0809174 30.0612 0.430918 28.8112 1.12092V0.560921H13.4012V1.85092C12.1512 0.990922 10.6712 0.560921 8.9812 0.560921H0.241211V20.1509H8.9512C10.6412 20.1509 12.1412 19.7409 13.4112 18.9409V18.9309ZM41.6112 8.81092V11.1709C41.4612 10.6809 41.2612 10.2209 41.0012 9.80092C40.8712 9.58092 40.7212 9.38092 40.5712 9.18092L41.6112 8.82092V8.81092Z" fill="#2A2A2D"/>
<path d="M63.8605 15.7909H64.1005C66.0105 15.7909 67.6905 15.3209 69.1005 14.4009V20.1509H76.7006V15.5309L79.6005 20.1509H88.6406L88.5405 19.9909C89.7105 20.4209 90.9906 20.6309 92.3806 20.6309C95.1106 20.6309 97.4405 19.8009 99.3105 18.1509V20.1409H106.461C109.551 20.1409 112.131 19.2709 114.141 17.5509C114.501 17.2409 114.831 16.9109 115.131 16.5709C115.431 17.0809 115.781 17.5509 116.181 17.9809C117.771 19.7109 119.911 20.6309 122.361 20.6309C124.811 20.6309 126.931 19.7109 128.521 17.9809C128.771 17.7109 128.991 17.4309 129.201 17.1309C129.341 17.3009 129.491 17.4609 129.651 17.6209C131.531 19.5209 133.921 20.5409 136.781 20.6309H137.091C138.121 20.6309 139.131 20.4709 140.071 20.1609C141.091 19.8209 141.981 19.3709 142.701 18.8209C143.361 18.3209 143.951 17.7509 144.481 17.1109C144.981 16.4909 145.371 15.9309 145.651 15.4009C145.841 15.0509 145.991 14.7109 146.121 14.3909V20.1509H153.721V7.99092H158.271V0.560921H141.571V1.06092C141.131 0.850921 140.641 0.670918 140.111 0.510918C139.141 0.220918 138.101 0.0809174 137.001 0.0809174H136.821C134.541 0.110917 132.541 0.760918 130.861 2.01092V0.560921H123.261V11.6409C123.261 12.2609 123.141 12.7009 122.891 12.9909C122.771 13.1409 122.681 13.2009 122.361 13.2009C122.081 13.2009 122.001 13.1509 121.861 12.9709C121.581 12.6209 121.451 12.2109 121.451 11.6309V0.550919H113.851V2.90092C111.891 1.34092 109.411 0.550919 106.461 0.550919H99.3105V2.55092C97.4405 0.900919 95.1106 0.0709229 92.3806 0.0709229C89.4306 0.0709229 86.9606 1.05092 85.0106 2.99092C84.8506 3.15092 84.6905 3.32092 84.5505 3.49092C84.2705 3.14092 83.9605 2.81092 83.6105 2.50092C82.1305 1.21092 80.2805 0.550919 78.1005 0.550919H69.1105V1.94092C67.7005 1.02092 66.0306 0.550919 64.1306 0.550919H56.3105V20.1409H63.8705V15.7809L63.8605 15.7909ZM146.111 9.45092V10.6809L144.191 10.1509L146.111 9.46092V9.45092ZM135.131 8.19092C135.581 7.71092 136.091 7.50092 136.851 7.50092C137.511 7.50092 138.051 7.64092 138.551 7.94092C138.901 8.15092 138.961 8.31092 139.001 8.48092L139.411 10.1909L138.971 11.8509C138.911 12.0909 138.781 12.3809 138.291 12.7209C137.831 13.0409 137.371 13.1909 136.841 13.1909C136.091 13.1909 135.581 12.9809 135.131 12.5009C134.631 11.9609 134.391 11.2709 134.381 10.3509C134.381 9.41092 134.611 8.72092 135.111 8.18092L135.131 8.19092ZM106.911 8.00092C107.861 8.06092 108.581 8.30092 109.111 8.74092C109.581 9.14092 109.781 9.62092 109.781 10.3609C109.781 11.2309 109.521 11.6309 109.121 11.9609C108.591 12.4009 107.871 12.6409 106.921 12.7009V7.99092L106.911 8.00092ZM90.4305 8.25092C90.9405 7.73092 91.5206 7.51092 92.3806 7.51092C93.2406 7.51092 93.8306 7.73092 94.3306 8.25092C94.8506 8.79092 95.0806 9.44092 95.0806 10.3709C95.0806 11.3009 94.8506 11.9409 94.3306 12.4709C93.8306 12.9809 93.2405 13.2109 92.4005 13.2109C91.5305 13.2109 90.9405 12.9809 90.4205 12.4509C89.9005 11.9209 89.6705 11.2809 89.6705 10.3709C89.6705 9.46092 89.9005 8.79092 90.4305 8.25092ZM63.8605 7.99092H63.8906C64.2806 7.99092 64.5805 8.05092 64.8105 8.18092C64.6005 8.29092 64.2906 8.35092 63.8906 8.35092H63.8605V7.99092Z" fill="#2A2A2D"/>
<path d="M45.231 23.0406H23.811V26.6706C21.231 24.3206 17.941 23.1306 14.031 23.1306C10.121 23.1306 6.59096 24.4106 3.98096 26.9406C1.34096 29.4906 0.000976562 32.8206 0.000976562 36.8206C0.000976562 40.8206 1.34096 44.1406 3.98096 46.7006C6.59096 49.2306 9.97098 50.5106 14.031 50.5106C18.091 50.5106 21.241 49.3206 23.811 46.9806V50.2506L34.581 50.4407L34.611 41.6406L45.2809 41.6106V32.1106L45.2209 31.1106V23.0406H45.231ZM16.881 38.7106C16.621 39.2006 16.271 39.5606 15.801 39.8406C15.311 40.1306 14.751 40.2707 14.101 40.2707C13.071 40.2607 12.331 39.9806 11.731 39.3506C11.111 38.7106 10.831 37.8907 10.831 36.7707C10.831 36.4207 10.861 36.0807 10.921 35.7707C10.971 35.5107 11.041 35.2807 11.141 35.0807C11.251 34.8407 11.391 34.6106 11.551 34.4006C11.671 34.2306 11.821 34.0806 11.981 33.9506C12.161 33.8106 12.351 33.6906 12.551 33.5807C12.741 33.4907 12.961 33.4106 13.211 33.3606C13.491 33.3006 13.791 33.2707 14.091 33.2707C14.761 33.2707 15.331 33.4106 15.821 33.7006C16.291 33.9706 16.641 34.3306 16.901 34.8206C17.191 35.3706 17.331 36.0106 17.331 36.7806C17.331 37.5506 17.191 38.1906 16.901 38.7306L16.881 38.7106Z" fill="#2A2A2D"/>
<path d="M147.731 22.9512L147.671 30.7812L145.401 30.7612L145.341 22.9512H135.581L134.581 23.0112H114.841V23.1212H108.291L108.321 29.1612L104.511 23.1212H94.4106V26.8512C91.8006 24.3812 88.4407 23.1212 84.4307 23.1212C80.4207 23.1212 77.2007 24.3312 74.6207 26.7012V22.8912H65.5906L60.7607 28.4112L56.0707 22.9412H46.9706L46.9307 50.2912L57.7106 50.1612L57.7507 40.7812L60.6207 44.1512L63.8007 40.6212L63.8207 50.1712L74.5306 50.2312V46.8112C77.1306 49.2412 80.4607 50.4712 84.4407 50.4712C88.4207 50.4712 91.8207 49.2212 94.4207 46.7612V50.1612H105.091L105.141 44.1212L108.901 50.1612H119.041V33.1712H121.261V50.2812H132.271V33.1712H134.581V50.2212H145.371V41.2212H147.711V50.2212H158.491V22.9312H147.731V22.9512ZM87.2806 38.7012C87.0206 39.1912 86.6707 39.5512 86.2007 39.8312C85.7107 40.1212 85.1507 40.2612 84.5007 40.2612C83.4607 40.2512 82.7307 39.9712 82.1307 39.3412C81.5107 38.7012 81.2307 37.8812 81.2307 36.7612C81.2307 36.4112 81.2607 36.0712 81.3207 35.7612C81.3707 35.5012 81.4406 35.2712 81.5306 35.0712C81.6406 34.8312 81.7807 34.5912 81.9407 34.3812C82.0707 34.2112 82.2007 34.0612 82.3707 33.9312C82.5407 33.7912 82.7307 33.6712 82.9407 33.5712C83.1307 33.4812 83.3506 33.4012 83.6006 33.3512C83.8806 33.2912 84.1806 33.2612 84.4706 33.2612C85.1406 33.2612 85.7107 33.4012 86.2007 33.6912C86.6707 33.9712 87.0206 34.3212 87.2806 34.8112C87.5706 35.3612 87.7206 36.0012 87.7206 36.7712C87.7206 37.5412 87.5807 38.1812 87.2906 38.7212L87.2806 38.7012Z" fill="#2A2A2D"/>
<path d="M148.721 23.9512L148.661 31.7912L144.411 31.7612L144.351 23.9512H135.581V24.0112H115.841V24.1212H109.301L109.341 32.6512L103.961 24.1212H95.4106V29.5512C94.9506 28.8712 94.4107 28.2312 93.8007 27.6412C91.3707 25.3012 88.2207 24.1212 84.4307 24.1212C80.6407 24.1212 77.4907 25.3112 75.0707 27.6512C74.5207 28.1912 74.0306 28.7612 73.6006 29.3712L73.6207 23.8912H66.0406L60.7407 29.9412L55.6006 23.9512H47.9606L47.9307 49.2912L56.7106 49.1912L56.7507 38.1012L60.6307 42.6612L64.7906 38.0512L64.8107 49.2012L73.5306 49.2512L73.5507 44.1712C73.9907 44.8112 74.5007 45.4112 75.0807 45.9712C77.5007 48.3112 80.6507 49.5012 84.4407 49.5012C88.2307 49.5012 91.4007 48.3112 93.8207 45.9712C94.4307 45.3812 94.9607 44.7512 95.4207 44.0812V49.1912H104.101L104.171 40.7112L109.461 49.1912H118.041V32.2012H122.261V49.3112H131.271V32.2012H135.581V49.2512H144.371V40.2512H148.711V49.2512H157.491V23.9612H148.721V23.9512ZM80.3207 35.5612C80.3807 35.2212 80.4807 34.9112 80.6107 34.6312C80.7507 34.3212 80.9307 34.0312 81.1207 33.7712C81.3007 33.5312 81.4906 33.3312 81.7206 33.1412C81.9506 32.9512 82.2107 32.7912 82.4807 32.6612C82.7407 32.5312 83.0507 32.4312 83.3707 32.3612C83.7207 32.2812 84.0807 32.2512 84.4507 32.2512C85.3007 32.2512 86.0307 32.4312 86.6807 32.8112C87.3107 33.1812 87.7907 33.6712 88.1407 34.3312C88.5107 35.0312 88.6907 35.8212 88.6907 36.7612C88.6907 37.7012 88.5107 38.4912 88.1407 39.1812C87.7907 39.8412 87.3107 40.3312 86.6807 40.7012C86.0307 41.0812 85.3006 41.2612 84.4706 41.2612C83.1606 41.2512 82.1807 40.8612 81.3907 40.0312C80.5907 39.2112 80.2106 38.1312 80.2106 36.7512C80.2106 36.3412 80.2507 35.9412 80.3207 35.5612Z" fill="#2A2A2D"/>
<path d="M2.24048 16.1413V2.55135H7.98047C9.20047 2.55135 10.2105 2.88135 11.0205 3.55135C11.8205 4.22135 12.2205 5.07135 12.2205 6.09135C12.2205 6.76135 12.0205 7.36135 11.6105 7.88135C11.2105 8.41135 10.6805 8.75135 10.0405 8.92135C10.8005 9.10135 11.4105 9.50135 11.8905 10.1114C12.3705 10.7214 12.6005 11.4313 12.6005 12.2313C12.6005 13.3613 12.1605 14.2913 11.2805 15.0313C10.4005 15.7713 9.29049 16.1313 7.94049 16.1313H2.23047L2.24048 16.1413ZM3.84048 3.98135V8.24135H7.79047C8.63047 8.24135 9.31047 8.04134 9.83047 7.65134C10.3605 7.26134 10.6205 6.75135 10.6205 6.12135C10.6205 5.49135 10.3505 4.99135 9.82047 4.59135C9.29047 4.19135 8.61047 3.98135 7.79047 3.98135H3.84048ZM7.73047 9.67135H3.84048V14.7214H7.73047C8.68047 14.7214 9.46047 14.4813 10.0805 14.0014C10.7005 13.5214 11.0105 12.9114 11.0105 12.1814C11.0105 11.4514 10.7005 10.8513 10.0805 10.3813C9.46047 9.91135 8.68047 9.68135 7.73047 9.68135V9.67135Z" fill="#FFB700"/>
<path d="M16.9702 14.7214H24.8701V16.1513H15.4102V2.56135H24.8201V3.99135H16.9702V8.48135H24.8301V9.87135L16.9702 9.89135V14.7313V14.7214Z" fill="#FFB700"/>
<path d="M36.4507 15.3913C35.4907 16.2113 34.2207 16.6213 32.6407 16.6213C31.0607 16.6213 29.6506 16.1813 28.5506 15.3113C27.4606 14.4413 26.9106 13.3813 26.8906 12.1513L28.4906 11.7513C28.4906 12.7513 28.8806 13.5813 29.6606 14.2313C30.4406 14.8813 31.4406 15.2013 32.6606 15.2013C33.7706 15.2013 34.6406 14.9413 35.2906 14.4213C35.9406 13.9013 36.2607 13.2213 36.2607 12.3913C36.2607 11.9513 36.1607 11.5713 35.9507 11.2413C35.7407 10.9113 35.4506 10.6513 35.0606 10.4513C34.6706 10.2513 34.2607 10.0913 33.8307 9.97135C33.3907 9.85135 32.8907 9.75134 32.3307 9.69134C32.1807 9.66134 31.9506 9.63134 31.6606 9.59134C31.3106 9.55134 31.0506 9.52135 30.8806 9.49134C30.7106 9.46134 30.4706 9.42135 30.1606 9.36135C29.8506 9.30135 29.6107 9.25134 29.4507 9.20134C29.2807 9.15134 29.0706 9.07134 28.8206 8.98134C28.5706 8.88134 28.3806 8.78135 28.2406 8.68135C28.1006 8.58135 27.9506 8.45135 27.7906 8.28135C27.6206 8.12135 27.5006 7.94135 27.4106 7.75135C27.3306 7.56135 27.2607 7.33134 27.2007 7.08134C27.1407 6.82134 27.1106 6.55135 27.1106 6.25135C27.1106 5.03135 27.5906 4.02134 28.5406 3.23134C29.4906 2.44134 30.7206 2.05134 32.2406 2.06134C33.0406 2.07134 33.7507 2.17135 34.3907 2.36135C35.0307 2.55135 35.5306 2.78134 35.9006 3.05134C36.2706 3.33134 36.5906 3.64134 36.8406 3.98134C37.1006 4.33134 37.2806 4.64134 37.3806 4.91134C37.4806 5.18134 37.5506 5.44135 37.5706 5.68135L36.0107 6.22135C35.9807 5.98135 35.9306 5.74135 35.8606 5.50135C35.7806 5.26135 35.6506 5.02134 35.4606 4.77134C35.2706 4.52134 35.0506 4.30135 34.7806 4.11135C34.5106 3.92135 34.1606 3.77134 33.7206 3.66134C33.2806 3.54134 32.7906 3.49135 32.2406 3.49135C31.1906 3.50135 30.3407 3.75134 29.7007 4.23134C29.0607 4.71134 28.7406 5.34135 28.7406 6.11135C28.7406 6.30135 28.7606 6.48134 28.8106 6.65134C28.8606 6.82134 28.9306 6.96134 29.0306 7.08134C29.1306 7.20134 29.2307 7.31134 29.3307 7.40134C29.4307 7.49134 29.5707 7.57135 29.7607 7.64135C29.9507 7.71135 30.1206 7.77134 30.2506 7.81134C30.3806 7.86134 30.5806 7.90134 30.8506 7.94134C31.1206 7.98134 31.3206 8.02134 31.4806 8.05134C31.6306 8.08134 31.8706 8.11134 32.1706 8.15134C32.4806 8.19134 32.7106 8.21134 32.8606 8.23134C33.2106 8.28134 33.5206 8.33134 33.7906 8.38134C34.0606 8.43134 34.3606 8.50134 34.6906 8.58134C35.0106 8.66134 35.3006 8.76135 35.5506 8.86135C35.8006 8.96135 36.0506 9.08134 36.3106 9.23134C36.5706 9.37134 36.7906 9.54134 36.9706 9.73134C37.1506 9.92134 37.3106 10.1413 37.4606 10.3813C37.6106 10.6213 37.7206 10.8913 37.7906 11.1913C37.8606 11.4913 37.9006 11.8213 37.9006 12.1813C37.9006 13.4913 37.4206 14.5613 36.4606 15.3813L36.4507 15.3913Z" fill="#FFB700"/>
<path d="M43.6105 3.98135H39.0605V2.55135H49.7606V3.98135H45.2105V16.1413H43.6105V3.98135Z" fill="#FFB700"/>
<path d="M59.8608 11.7914V16.1513H58.3008V2.56135H63.1208C64.6908 2.56135 65.9808 2.99135 66.9808 3.86135C67.9908 4.73135 68.4908 5.84135 68.4908 7.19135C68.4908 8.54135 67.9908 9.63135 66.9808 10.5014C65.9708 11.3714 64.6808 11.8013 63.1008 11.8013H59.8608V11.7914ZM59.8608 3.98135V10.3413H62.8908C64.0708 10.3413 65.0408 10.0413 65.7808 9.45135C66.5308 8.86135 66.8908 8.10135 66.8808 7.18135C66.8808 6.24135 66.5108 5.47135 65.7608 4.88135C65.0108 4.28135 64.0608 3.98135 62.8908 3.98135H59.8608Z" fill="#FFB700"/>
<path d="M72.6909 16.1413H71.0908V2.55135H77.0809C78.5209 2.55135 79.7008 2.95135 80.6208 3.75135C81.5408 4.55135 82.0009 5.58135 82.0009 6.82135C82.0009 7.77135 81.6909 8.62135 81.0609 9.35135C80.4309 10.0913 79.6308 10.5613 78.6508 10.7713L82.1208 16.1313H80.2509L77.0308 11.0014H72.6909V16.1313V16.1413ZM72.6909 3.98135V9.59135H76.9708C77.9708 9.59135 78.7909 9.33135 79.4409 8.82135C80.0809 8.31135 80.4008 7.64134 80.4008 6.83134C80.4008 5.96134 80.0809 5.26135 79.4509 4.75135C78.8109 4.24135 77.9908 3.98135 76.9708 3.98135H72.6909Z" fill="#FFB700"/>
<path d="M84.0703 9.36167C84.0703 7.23167 84.7503 5.48167 86.1203 4.12167C87.4903 2.76167 89.2403 2.08167 91.3703 2.08167C93.5003 2.08167 95.2703 2.76167 96.6403 4.12167C98.0103 5.48167 98.6903 7.23167 98.6903 9.36167C98.6903 11.4917 98.0103 13.2417 96.6403 14.5917C95.2703 15.9417 93.5103 16.6217 91.3703 16.6217C89.2303 16.6217 87.4703 15.9417 86.1103 14.5917C84.7503 13.2317 84.0703 11.4917 84.0703 9.36167ZM87.2803 5.15166C86.2103 6.25166 85.6703 7.65167 85.6703 9.36167C85.6703 11.0717 86.2103 12.4517 87.2803 13.5417C88.3503 14.6317 89.7203 15.1917 91.3803 15.2017C93.0503 15.2017 94.4203 14.6517 95.4903 13.5517C96.5603 12.4517 97.0903 11.0517 97.0903 9.36167C97.0903 7.67167 96.5603 6.25166 95.4903 5.15166C94.4203 4.05166 93.0503 3.50167 91.3803 3.50167C89.7103 3.50167 88.3603 4.05166 87.2803 5.15166Z" fill="#FFB700"/>
<path d="M101.3 2.55135H105.45C107.83 2.55135 109.74 3.17135 111.18 4.42135C112.63 5.67135 113.35 7.31135 113.35 9.35135C113.35 11.3913 112.62 13.0213 111.17 14.2713C109.72 15.5213 107.81 16.1413 105.44 16.1413H101.29V2.55135H101.3ZM105.45 3.98135H102.91V14.7214H105.45C107.35 14.7214 108.88 14.2413 110.04 13.2613C111.2 12.2913 111.78 10.9914 111.78 9.36135C111.78 7.73135 111.2 6.42135 110.04 5.45135C108.88 4.48135 107.35 3.98135 105.45 3.98135Z" fill="#FFB700"/>
<path d="M125.241 2.55135H126.841V10.6313C126.841 12.3913 126.331 13.8313 125.301 14.9513C124.271 16.0713 122.951 16.6313 121.351 16.6313C119.751 16.6313 118.411 16.0713 117.381 14.9513C116.351 13.8313 115.841 12.3913 115.841 10.6313V2.55135H117.441V10.6313C117.441 11.9013 117.801 12.9813 118.531 13.8713C119.261 14.7613 120.201 15.2013 121.361 15.2013C122.521 15.2013 123.451 14.7814 124.171 13.9314C124.891 13.0814 125.251 11.9813 125.251 10.6313V2.55135H125.241Z" fill="#FFB700"/>
<path d="M139.021 14.1816C139.981 13.5016 140.601 12.6416 140.871 11.6216L142.391 12.0416C142.301 12.3216 142.161 12.6416 141.981 12.9916C141.801 13.3416 141.511 13.7516 141.141 14.2016C140.771 14.6616 140.351 15.0616 139.881 15.4116C139.411 15.7616 138.821 16.0616 138.111 16.3016C137.401 16.5416 136.641 16.6416 135.841 16.6216C133.781 16.5616 132.091 15.8516 130.771 14.5116C129.451 13.1716 128.791 11.4516 128.791 9.3516C128.791 7.2516 129.451 5.5116 130.781 4.1516C132.111 2.7916 133.801 2.0916 135.841 2.0716C136.701 2.0616 137.501 2.1616 138.231 2.3816C138.961 2.6016 139.561 2.8716 140.021 3.2016C140.481 3.5316 140.891 3.8916 141.231 4.3016C141.581 4.7016 141.831 5.0716 141.991 5.4016C142.151 5.7316 142.251 6.0216 142.291 6.2816L140.901 6.7816C140.661 5.7616 140.051 4.9616 139.091 4.3816C138.131 3.8016 137.041 3.5016 135.831 3.5016C134.241 3.5016 132.931 4.0516 131.911 5.1516C130.891 6.2516 130.381 7.6516 130.381 9.3616C130.391 11.0616 130.911 12.4516 131.931 13.5516C132.951 14.6516 134.251 15.2016 135.831 15.2016C136.991 15.2016 138.051 14.8616 139.011 14.1816H139.021Z" fill="#FFB700"/>
<path d="M148.101 3.98135H143.551V2.55135H154.251V3.98135H149.701V16.1413H148.101V3.98135Z" fill="#FFB700"/>
<path d="M5.07095 43.5318C3.03095 41.5518 2.00098 38.9818 2.00098 35.8118C2.00098 32.6418 3.02095 30.0718 5.07095 28.0918C7.11095 26.1118 9.77095 25.1218 13.041 25.1218C16.311 25.1218 18.971 26.1118 21.021 28.0918C23.071 30.0718 24.101 32.6418 24.101 35.8118C24.101 38.9818 23.081 41.5518 21.031 43.5318C18.991 45.5118 16.321 46.5018 13.041 46.5018C9.76095 46.5018 7.12095 45.5118 5.07095 43.5318ZM11.561 29.4018C11.071 29.5118 10.621 29.6618 10.211 29.8618C9.80097 30.0618 9.42097 30.3018 9.06097 30.5918C8.71097 30.8818 8.39096 31.2118 8.11096 31.5818C7.83096 31.9518 7.59096 32.3518 7.39096 32.7818C7.19096 33.2118 7.04096 33.6818 6.95096 34.1818C6.85096 34.6918 6.81097 35.2118 6.81097 35.7418C6.81097 37.6518 7.39097 39.2118 8.56097 40.4118C9.72097 41.6118 11.221 42.2218 13.061 42.2418C14.261 42.2418 15.341 41.9618 16.301 41.4118C17.251 40.8618 17.991 40.0918 18.521 39.1018C19.051 38.1218 19.311 36.9918 19.311 35.7318C19.311 34.4718 19.051 33.3518 18.521 32.3618C17.991 31.3818 17.251 30.6118 16.301 30.0518C15.341 29.5018 14.271 29.2218 13.061 29.2218C12.541 29.2218 12.041 29.2718 11.561 29.3818V29.4018Z" fill="#FFB700"/>
<path d="M30.6013 46.3917L25.8213 46.3017V25.0417H41.2413V29.3417H30.5513L30.6113 33.1517L41.3013 33.1217V37.6217L30.6413 37.6517L30.6113 46.3917H30.6013Z" fill="#FFB700"/>
<path d="M53.7214 46.2113L48.9414 46.2714L48.9714 24.9513H53.7014L59.7514 32.0014L65.9714 24.8913H70.6414L70.5514 46.2413L65.8214 46.2113L65.7914 31.8614L59.6914 38.6213L53.7914 31.6914L53.7314 46.2214L53.7214 46.2113Z" fill="#FFB700"/>
<path d="M75.4704 43.5318C73.4304 41.5518 72.4004 38.9818 72.4004 35.8118C72.4004 32.6418 73.4204 30.0718 75.4704 28.0918C77.5104 26.1118 80.1704 25.1218 83.4404 25.1218C86.7104 25.1218 89.3704 26.1118 91.4204 28.0918C93.4704 30.0718 94.5004 32.6418 94.5004 35.8118C94.5004 38.9818 93.4804 41.5518 91.4304 43.5318C89.3904 45.5118 86.7204 46.5018 83.4404 46.5018C80.1604 46.5018 77.5204 45.5118 75.4704 43.5318ZM81.9604 29.4018C81.4704 29.5118 81.0204 29.6618 80.6104 29.8618C80.2004 30.0618 79.8204 30.3018 79.4604 30.5918C79.1104 30.8818 78.7904 31.2118 78.5104 31.5818C78.2304 31.9518 77.9904 32.3518 77.7904 32.7818C77.5904 33.2118 77.4404 33.6818 77.3504 34.1818C77.2504 34.6918 77.2104 35.2118 77.2104 35.7418C77.2104 37.6518 77.7904 39.2118 78.9604 40.4118C80.1204 41.6118 81.6204 42.2218 83.4604 42.2418C84.6604 42.2418 85.7404 41.9618 86.7004 41.4118C87.6604 40.8618 88.3904 40.0918 88.9204 39.1018C89.4404 38.1218 89.7104 36.9918 89.7104 35.7318C89.7104 34.4718 89.4504 33.3518 88.9204 32.3618C88.3904 31.3818 87.6504 30.6118 86.7004 30.0518C85.7404 29.5018 84.6704 29.2218 83.4604 29.2218C82.9404 29.2218 82.4404 29.2718 81.9604 29.3818V29.4018Z" fill="#FFB700"/>
<path d="M110.371 38.6218L110.311 25.1218H115.041V46.1818H109.571L101.231 32.8018L101.121 46.1818H96.4209V25.1218H101.861L110.371 38.6218Z" fill="#FFB700"/>
<path d="M123.261 29.1913H116.841V25.0113H134.691V29.1913H128.271V46.3014H123.261V29.1913Z" fill="#FFB700"/>
<path d="M136.581 46.2409V24.9509H141.371L141.431 32.7409L149.651 32.8009L149.711 24.9509H154.491V46.2409H149.711V37.2409H141.371V46.2409H136.581Z" fill="#FFB700"/>
</svg>
