<svg width="21" height="21" viewBox="0 0 21 21" fill="none" xmlns="http://www.w3.org/2000/svg">
<path d="M8.69444 9.21908C8.73756 8.93893 8.83244 8.69274 8.95318 8.48051C9.07393 8.26827 9.24643 8.09 9.46205 7.95417C9.66904 7.82683 9.92779 7.7674 10.2469 7.75891C10.4453 7.7674 10.6264 7.80136 10.7903 7.86927C10.9628 7.94568 11.118 8.04755 11.2388 8.17489C11.3595 8.30223 11.4544 8.45504 11.532 8.62483C11.6096 8.79461 11.6441 8.98138 11.6528 9.16815H13.1966C13.1793 8.76915 13.1017 8.4041 12.9551 8.07302C12.8085 7.74193 12.6101 7.4533 12.3514 7.21559C12.0926 6.97789 11.7821 6.79113 11.4199 6.6553C11.0576 6.51947 10.6609 6.46004 10.221 6.46004C9.66042 6.46004 9.1688 6.55342 8.75481 6.74868C8.34082 6.94393 7.99583 7.19861 7.71983 7.5297C7.44384 7.86078 7.23684 8.24281 7.10747 8.68425C6.9781 9.1257 6.90048 9.58412 6.90048 10.0765V10.3057C6.90048 10.7981 6.96947 11.2565 7.09885 11.698C7.22822 12.1394 7.43521 12.5214 7.71121 12.844C7.9872 13.1666 8.3322 13.4298 8.74619 13.6166C9.16018 13.8033 9.65179 13.9052 10.2124 13.9052C10.6178 13.9052 10.9973 13.8373 11.3509 13.71C11.7045 13.5826 12.015 13.4043 12.2824 13.1751C12.5497 12.9459 12.7654 12.6827 12.9206 12.3771C13.0758 12.0715 13.1707 11.7489 13.1793 11.4008H11.6355C11.6269 11.5791 11.5838 11.7404 11.5061 11.8932C11.4285 12.046 11.325 12.1734 11.1956 12.2837C11.0663 12.3941 10.9196 12.479 10.7471 12.5384C10.5833 12.5978 10.4108 12.6148 10.2297 12.6233C9.91916 12.6148 9.66042 12.5554 9.46205 12.4281C9.24643 12.2922 9.07393 12.114 8.95318 11.9017C8.83244 11.6895 8.73756 11.4348 8.69444 11.1547C8.65131 10.8745 8.62544 10.5859 8.62544 10.3057V10.0765C8.62544 9.77938 8.65131 9.49923 8.69444 9.21908ZM10.3504 1.69751C5.5895 1.69751 1.72559 5.50074 1.72559 10.1869C1.72559 14.873 5.5895 18.6762 10.3504 18.6762C15.1113 18.6762 18.9752 14.873 18.9752 10.1869C18.9752 5.50074 15.1113 1.69751 10.3504 1.69751ZM10.3504 16.9784C6.54686 16.9784 3.45055 13.9307 3.45055 10.1869C3.45055 6.44306 6.54686 3.39538 10.3504 3.39538C14.1539 3.39538 17.2503 6.44306 17.2503 10.1869C17.2503 13.9307 14.1539 16.9784 10.3504 16.9784Z" fill="#2A2A2D"/>
</svg>
