<svg width="11" height="19" viewBox="0 0 11 19" fill="none" xmlns="http://www.w3.org/2000/svg">
<path d="M10.2207 0.207352L7.8753 0.203613C5.24034 0.203613 3.53751 1.93913 3.53751 4.62529V6.66399H1.17934C0.975561 6.66399 0.810547 6.8281 0.810547 7.03053V9.98436C0.810547 10.1868 0.975749 10.3507 1.17934 10.3507H3.53751V17.8042C3.53751 18.0066 3.70253 18.1705 3.9063 18.1705H6.98305C7.18683 18.1705 7.35184 18.0064 7.35184 17.8042V10.3507H10.1091C10.3129 10.3507 10.4779 10.1868 10.4779 9.98436L10.479 7.03053C10.479 6.93333 10.4401 6.84025 10.371 6.77146C10.302 6.70268 10.2079 6.66399 10.11 6.66399H7.35184V4.93576C7.35184 4.10511 7.5511 3.68343 8.64035 3.68343L10.2203 3.68287C10.4239 3.68287 10.5889 3.51875 10.5889 3.31651V0.573707C10.5889 0.371651 10.4241 0.207725 10.2207 0.207352Z" fill="white"/>
</svg>
