<svg width="21" height="20" viewBox="0 0 21 20" fill="none" xmlns="http://www.w3.org/2000/svg">
<path d="M14.8467 0.591919H5.98705C3.1036 0.591919 0.757812 2.92223 0.757812 5.78665V14.588C0.757812 17.4522 3.1036 19.7826 5.98705 19.7826H14.8468C17.7301 19.7826 20.0759 17.4522 20.0759 14.588V5.78665C20.0759 2.92223 17.7301 0.591919 14.8467 0.591919V0.591919ZM10.4169 15.4345C7.50424 15.4345 5.13472 13.0806 5.13472 10.1872C5.13472 7.29382 7.50424 4.93994 10.4169 4.93994C13.3295 4.93994 15.699 7.29382 15.699 10.1872C15.699 13.0806 13.3295 15.4345 10.4169 15.4345ZM15.8253 6.17743C14.9646 6.17743 14.2645 5.48196 14.2645 4.62691C14.2645 3.77186 14.9646 3.07625 15.8253 3.07625C16.6861 3.07625 17.3863 3.77186 17.3863 4.62691C17.3863 5.48196 16.6861 6.17743 15.8253 6.17743Z" fill="white"/>
<path d="M10.4172 6.06494C8.1292 6.06494 6.26758 7.91414 6.26758 10.1872C6.26758 12.4601 8.1292 14.3095 10.4172 14.3095C12.7054 14.3095 14.5669 12.4601 14.5669 10.1872C14.5669 7.91414 12.7054 6.06494 10.4172 6.06494Z" fill="white"/>
<path d="M15.8258 4.20154C15.5897 4.20154 15.3975 4.39246 15.3975 4.62701C15.3975 4.86157 15.5897 5.05249 15.8258 5.05249C16.062 5.05249 16.2542 4.86171 16.2542 4.62701C16.2542 4.39231 16.062 4.20154 15.8258 4.20154Z" fill="white"/>
</svg>
