<svg width="85" height="171" viewBox="0 0 85 171" fill="none" xmlns="http://www.w3.org/2000/svg">
<path d="M84.3389 3.07468C84.3389 3.07468 27.2089 79.2049 16.7389 154.275C16.7389 154.275 6.9689 112.795 7.1289 102.455C7.3389 88.025 26.4089 40.015 53.1289 3.68503C53.9189 2.01503 77.0189 -1.98532 84.3389 3.07468Z" fill="#FF693B"/>
<path d="M2.43936 158.615C0.889364 147.695 -0.660607 136.565 1.21939 125.695C1.78939 122.435 2.72936 119.095 4.93936 116.645C7.14936 114.195 10.9394 112.895 13.8794 114.395C17.2194 116.105 18.1294 120.395 18.5194 124.115C19.7805 136.2 19.5184 148.396 17.7394 160.415C17.1394 164.415 15.6294 169.295 11.6294 170.145C8.73937 170.765 5.79935 168.765 4.35935 166.145C2.91935 163.525 2.62935 160.525 2.35935 157.575" fill="#FFB700"/>
</svg>
