<svg width="150" height="62" viewBox="0 0 150 62" fill="none" xmlns="http://www.w3.org/2000/svg">
<path d="M26.8103 22.3254C22.4546 31.8423 14.8966 39.7132 5.6439 44.558L7.30714 44.6316C3.02565 42.2665 3.98282 36.3257 7.86499 34.1134C12.6369 31.4081 18.0011 33.8905 21.2931 37.6931C21.9319 38.4273 23.4249 38.4239 23.9068 37.4731C26.2833 32.6714 26.2764 27.0698 23.6143 22.3692C22.8635 21.0283 21.1588 21.3695 20.5823 22.6286C16.0475 32.5311 11.5132 42.422 6.97845 52.3245C6.51717 53.3341 7.5102 54.4312 8.47991 54.4856C16.4786 54.9667 24.4662 55.4357 32.4649 55.9168C33.977 56.0069 34.6111 54.2295 33.7562 53.1502C27.1906 44.8629 18.9301 38.0052 9.56519 33.0892C9.24252 34.1049 8.91981 35.1206 8.59713 36.1363C18.9764 36.4334 29.3557 36.7305 39.7355 37.016C39.3842 36.063 39.0449 35.0991 38.6936 34.1461C31.6929 41.4514 23.7518 47.7777 15.0413 52.9242C15.8222 53.5837 16.6031 54.2431 17.3841 54.9026C19.0639 46.2279 18.8783 37.3433 16.7233 28.7651C15.8872 29.353 15.0511 29.941 14.215 30.5289C22.0726 34.9848 30.4205 38.5598 39.1052 41.0617C42.179 41.9499 46.9051 43.9412 49.8502 41.7222C53.7646 38.7822 49.6968 34.2046 47.6488 31.5796C44.2215 27.1692 40.7938 22.7703 37.3782 18.3605C36.3597 17.054 34.1174 18.2972 34.5466 19.8438C37.1009 29.0762 35.5249 39.0633 30.2302 47.0458L32.5202 46.5569C31.6805 45.9179 31.9823 44.5888 32.3876 43.7967C33.0842 42.4387 34.6134 41.8815 36.0163 41.5616C39.3133 40.8048 42.664 40.6636 45.9256 39.6622C52.3322 37.6773 58.174 34.0704 62.7648 29.1814C61.9281 28.4732 61.0915 27.7649 60.2543 27.0683C56.4925 34.9334 52.7305 42.7986 48.9802 50.6642C48.3685 51.9333 49.5919 54.1052 51.144 53.0282C54.3437 50.8089 54.1622 46.2759 51.5372 43.6137C50.0197 42.0769 48.0216 41.2015 46.0541 40.4201C44.2573 39.7042 42.2494 39.0483 40.9021 37.5884C39.2452 35.8023 39.7482 33.3248 40.1571 31.1441C40.5661 28.9633 40.9143 26.8493 40.2434 24.7481C39.1968 21.4614 34.4237 18.9588 31.7616 22.1046C31.0775 22.9192 31.0154 24.0622 31.9817 24.7183C35.9601 27.394 39.9385 30.0697 43.917 32.7454C45.8274 34.0335 47.7378 35.3216 49.6487 36.5981C51.5029 37.849 53.5002 39.002 55.2307 40.4325C56.4699 41.4595 58.1106 43.6152 56.4397 45.0226C55.0578 46.1766 52.7157 46.5359 51.059 47.0991C46.5607 48.5898 42.0623 50.0804 37.5751 51.5832C35.5547 52.2576 36.1934 55.0865 38.3119 54.8099C45.6914 53.8517 50.1222 45.5185 46.5946 38.928C44.8951 35.7513 41.9716 33.8166 38.4964 33.1074C37.1201 32.8266 35.1109 32.7262 34.0088 31.7401C32.6944 30.5825 34.0535 29.1613 35.1598 28.4811C38.5015 26.4533 43.0162 27.2085 45.2459 23.3723C44.2302 23.0496 43.2144 22.727 42.1987 22.4043C41.9469 33.3295 43.6984 44.2276 47.4215 54.5069C48.369 54.0165 49.3055 53.5139 50.253 53.0235C44.914 47.8805 37.9563 44.7952 30.5578 44.3523L31.2529 47.4729C38.8396 44.1862 46.5347 41.0663 54.0162 37.5435C59.9849 34.7291 65.9453 31.058 69.1614 25.0666C69.7035 24.0606 69.1955 22.4643 67.839 22.52C59.9673 22.8315 52.1076 23.1319 44.2359 23.4434C42.9261 23.4896 41.823 25.142 42.9446 26.21C51.5387 34.425 60.1206 42.6509 68.7146 50.8659C69.4228 50.0292 70.131 49.1926 70.8277 48.3554C63.5148 44.1435 56.019 40.1434 48.8559 35.6835C46.6819 34.3374 43.337 31.9907 44.3497 28.9802C45.6035 25.2282 50.5875 25.0552 53.8212 24.9436C53.3078 24.5159 52.7944 24.0881 52.2809 23.6604C53.7111 29.7878 55.1529 35.9157 56.5831 42.0431C56.8163 43.0487 58.0266 43.6809 58.9647 43.1437C62.1837 41.2724 62.8649 36.8586 60.7277 33.894C58.2309 30.4275 53.4745 29.9046 49.6499 31.0779C45.1099 32.4625 40.8436 35.2481 36.9751 37.9354C33.1066 40.6228 29.1916 43.8405 25.7399 47.3101C24.4804 48.5737 25.9676 51.0582 27.6232 49.9973C31.7673 47.3568 35.4177 44.1043 38.5031 40.2829C40.8299 37.3884 44.6687 32.7555 43.3424 28.7274C42.6801 26.696 40.5756 25.6076 38.5072 26.06C36.1465 26.5805 34.3934 28.5398 32.7254 30.1441C28.4712 34.2263 24.2049 38.3196 19.9507 42.4018L22.679 43.2515C20.4787 35.4351 14.3827 29.0897 6.60798 26.6859L6.46697 29.8738C14.0106 29.1312 21.5422 28.3996 29.0858 27.657C28.4978 26.8209 27.9099 25.9848 27.3219 25.1487C22.1541 33.403 18.2608 42.408 15.8075 51.8239C15.3064 53.7344 17.5927 54.6341 18.7659 53.2278C25.0812 45.7186 32.7471 39.3339 41.2279 34.4087C45.4211 31.9671 49.8305 29.8707 54.3727 28.1737C56.691 27.3041 59.062 26.5526 61.452 25.8945C63.3848 25.3666 66.3646 24.4569 67.9915 26.1375C69.7403 27.9392 69.463 31.8501 69.6853 34.1514C70.0117 37.4988 70.3267 40.8457 70.6531 44.1931C71.6006 43.7026 72.5371 43.2002 73.4846 42.7097C69.4931 37.4527 62.8599 34.8795 56.3643 35.7378C54.5481 35.9816 54.9305 38.3246 56.2233 38.9257C67.0524 43.9644 78.4568 47.5125 90.2027 49.6175C91.5459 49.8621 92.1864 48.2008 91.7447 47.1976C87.3985 37.3999 84.9386 26.8177 84.5213 16.1059C84.4483 14.3552 81.831 13.6145 81.2952 15.5234C78.9023 24.0972 73.9663 31.8178 67.0954 37.4971C65.8221 38.5517 63.7748 40.3591 61.9735 39.4809C60.1387 38.5781 62.0571 36.5451 63.2878 36.1945C65.6205 35.5223 68.4245 36.4912 70.7197 36.9283C73.3589 37.4385 75.9981 37.9487 78.6489 38.4595C84.6844 39.6291 90.7201 40.7988 96.7672 41.9689C98.3735 42.283 99.58 40.6467 98.4948 39.2794C93.3331 32.7439 88.1603 26.1964 82.9986 19.6608C82.0889 18.5096 80.1889 19.3398 80.1286 20.7027C79.9057 26.0048 78.5178 31.2206 75.9174 35.8505C74.8749 37.7023 73.6158 39.7413 71.6946 40.7905C69.4182 42.0207 67.1557 40.8443 65.3349 39.3634C62.6658 37.1738 56.9362 31.9672 60.6571 28.4285C62.0583 27.1018 64.085 26.5433 65.9093 26.1148C68.3419 25.5396 70.8749 25.0499 73.3699 24.894C76.3516 24.725 79.0496 25.2147 81.6453 26.7067C83.9705 28.0363 86.2097 29.4778 88.9812 29.6119C89.9515 29.6548 91.0385 28.6267 90.6676 27.5918C88.3193 21.0303 83.4911 15.852 77.0987 13.0695C75.8155 12.5152 74.8401 13.8954 74.9759 15.0124C75.6272 20.4342 76.364 26.2764 74.3498 31.5223C72.8573 35.4374 69.6989 38.8158 65.4332 39.4951C66.0211 40.3312 66.6091 41.1673 67.197 42.0034C71.6092 34.873 69.2129 24.687 61.9854 20.3747C61.5136 21.3607 61.0534 22.3472 60.5816 23.3331C69.2755 25.6272 77.9693 27.9213 86.6626 30.2269L86.4033 27.1949C79.1233 30.6109 74.2213 38.09 73.9125 46.1195C73.8655 47.1821 74.8797 48.0602 75.9325 47.8059C82.5542 46.1893 89.1759 44.5726 95.7976 42.956C97.5175 42.5344 97.3327 40.4316 95.9386 39.7682C91.5625 37.7114 87.1869 35.643 82.8108 33.5862C82.475 34.6361 82.1277 35.6854 81.792 36.7353C88.5953 38.0777 95.5058 36.4739 100.983 32.2028L98.6503 32.0996C101.024 34.1719 103.409 36.2333 105.782 38.3056C106.919 39.2933 109.092 38.5793 108.614 36.8222C106.97 30.8242 105.326 24.8146 103.682 18.8166C103.283 17.364 101.555 17.1834 100.685 18.2906C97.7434 21.9911 94.7907 25.6911 91.8496 29.3916C90.7593 30.7553 92.6407 32.4356 94.0132 31.7556C100.923 28.3348 107.833 24.9024 114.743 21.4816C116.069 20.8227 115.771 18.9232 114.484 18.4496C109.417 16.5822 104.38 14.5424 99.2593 12.8346C97.2063 12.1536 94.8407 12.0026 93.3472 13.8461C92.1227 15.3658 92.088 17.459 92.8209 19.2042C93.6696 21.2091 95.4246 22.8722 96.9421 24.4091C98.581 26.0786 100.317 27.6368 102.127 29.1171C105.846 32.1517 109.91 34.727 114.227 36.8159C115.485 37.4271 117.038 36.5815 116.735 35.0521C115.648 29.5531 114.549 24.0537 113.46 18.5664C112.437 18.9493 111.413 19.3206 110.389 19.7035C113.011 25.062 110.052 31.5276 104.216 32.9128C100.988 33.6727 97.9571 32.3351 94.9351 31.3219C91.4116 30.1361 87.8759 28.9612 84.3524 27.7754L85.2384 30.2449C87.6756 26.9503 90.5351 23.0031 94.9032 22.3631C96.6621 22.1053 98.6153 22.4231 99.9362 23.6967C101.334 25.0547 101.909 26.9665 103.693 27.9713C107.104 29.8696 110.332 26.4943 110.445 23.1547C110.582 19.0177 106.387 16.7953 103.177 15.3109C102.701 15.0931 101.895 15.2657 101.553 15.6672C99.3694 18.1977 100.769 21.3611 103.151 23.2371C104.951 24.6476 109.554 26.2978 106.327 28.8747C104.911 30.0041 103.11 30.6998 101.512 31.5086C99.6298 32.4554 97.7594 33.4026 95.8774 34.3493C92.0306 36.2854 88.1954 38.2221 84.348 40.1697C83.1051 40.7975 83.2357 42.817 84.6074 43.2017C95.7975 46.3584 106.988 49.5152 118.178 52.6834C119.423 53.0394 121.026 51.6058 120.156 50.3406C113.144 40.1126 102.561 32.6429 90.4949 29.6673C88.4458 29.16 87.4346 32.1358 89.4761 32.8163C100.173 36.4026 111.356 38.4017 122.636 38.7502C122.285 37.7972 121.945 36.8333 121.594 35.8803C116.937 39.3777 112.292 42.8871 107.635 46.3844L110.325 48.112C111.933 42.6397 113.54 37.1674 115.148 31.6952C115.556 30.3245 114.108 29.0453 112.805 29.7167C106.763 32.875 100.721 36.0334 94.6796 39.1917L96.5628 41.8789C105.016 34.9619 113.481 28.0339 121.935 21.1169L119.206 20.2671C119.746 22.7097 119.46 25.2662 118.307 27.5067C117.182 29.6673 114.877 31.012 113.989 33.2988C113.245 35.1986 113.741 37.8591 115.872 38.613C117.889 39.3156 119.924 38.0631 120.188 36.0033C120.29 35.2672 119.683 34.6038 119.046 34.3557C113.821 32.3887 108.609 30.3875 103.383 28.4436C101.596 27.7743 99.5284 27.1621 97.6666 27.913C95.9576 28.6128 95.0332 30.412 95.4281 32.2117C95.872 34.2102 97.5541 35.4304 99.3755 36.1127C101.902 37.0693 104.606 37.6981 107.199 38.4608C112.499 40.0377 117.788 41.6025 123.088 43.1794C125.178 43.8042 126.013 40.8901 124.107 40.0304C110.206 33.7912 98.0336 24.0639 88.7414 12.0106L87.0139 14.7001C98.8441 17.5148 110.674 20.341 122.504 23.1557L123.087 19.9295C114.926 19.1867 106.765 18.4438 98.6039 17.7125L98.8992 20.9775C107.601 18.122 116.701 16.9969 125.825 17.6782C125.593 16.638 125.361 15.5978 125.129 14.5575C122.899 15.5236 120.365 14.9949 118.018 14.9489C115.821 14.9096 113.542 15.156 111.692 16.4282C108.947 18.3088 107.847 23.0282 110.923 25.1664C112.81 26.4766 115.155 26.0364 117.245 25.6196C119.861 25.0872 122.477 24.5549 125.093 24.0225C130.511 22.9197 135.93 21.8169 141.337 20.7021C140.847 19.7546 140.344 18.8181 139.854 17.8706C134.394 23.3114 128.922 28.7631 123.462 34.2039C124.299 34.9121 125.135 35.6204 125.972 36.317C128.706 32.8504 131.441 29.3722 134.187 25.9061C135.511 24.2287 132.719 22.4503 131.407 24.1166C128.673 27.5833 125.939 31.0615 123.193 34.5276C122.028 36.0037 124.384 37.9595 125.703 36.6407C131.163 31.2 136.635 25.7482 142.096 20.3074C143.258 19.1437 142.259 17.1322 140.612 17.4759C136.315 18.3506 132.017 19.2252 127.72 20.0998C123.422 20.9744 119.277 22.0756 115.026 22.6746C113.699 22.8589 112.121 22.6849 112.392 20.9957C112.664 19.3065 114.258 18.5901 115.773 18.3562C119.49 17.7684 123.057 19.0371 126.678 17.4845C128.259 16.8022 127.517 14.478 125.983 14.3638C116.594 13.6592 107.123 14.8026 98.1744 17.7398C96.4364 18.311 96.5334 20.8266 98.4698 21.0048C106.63 21.7477 114.791 22.4906 122.953 23.2219C124.785 23.384 125.367 20.4355 123.535 19.9957C111.705 17.181 99.8749 14.3547 88.0447 11.54C86.3957 11.143 85.2882 12.8994 86.3172 14.2295C95.9701 26.7617 108.677 36.6977 123.1 43.1684L124.119 40.0194C119.915 38.7687 115.723 37.5302 111.52 36.2795C109.418 35.6542 107.316 35.0289 105.214 34.4036C103.432 33.8734 101.224 33.5559 99.6242 32.5824C99.2412 32.3456 98.4026 31.6836 98.7048 31.1299C98.9311 30.7233 99.736 30.8399 100.116 30.8798C101.992 31.1248 103.869 32.1221 105.622 32.7783C109.765 34.3387 113.897 35.9102 118.04 37.4706C117.659 36.9214 117.279 36.3722 116.898 35.8231C117.04 34.7068 117.308 33.8854 118.217 32.9419C119.358 31.7541 120.429 30.5632 121.189 29.0807C122.72 26.1279 123.147 22.756 122.434 19.5072C122.155 18.2334 120.642 17.8888 119.706 18.6574C111.252 25.5744 102.787 32.5024 94.3338 39.4194C92.857 40.6271 94.5824 42.9601 96.2172 42.1066C102.259 38.9483 108.301 35.79 114.343 32.6316C113.562 31.9722 112.781 31.3127 112 30.6532C110.392 36.1255 108.785 41.5978 107.177 47.07C106.686 48.7495 108.585 49.771 109.866 48.7977C114.523 45.3003 119.168 41.7909 123.825 38.2936C124.998 37.4081 124.135 35.4604 122.783 35.4237C111.781 35.0875 100.93 33.1494 90.4959 29.6442C90.1602 30.6941 89.8128 31.7434 89.4771 32.7933C100.662 35.5562 110.696 42.342 117.23 51.8661C117.889 51.0852 118.549 50.3042 119.208 49.5233C108.018 46.3666 96.8279 43.2099 85.6383 40.0416C85.7209 41.0521 85.8151 42.0631 85.8977 43.0736C89.8275 41.0949 93.7571 39.1162 97.6873 37.1259C99.5693 36.1791 101.44 35.2319 103.322 34.2851C104.991 33.4447 106.726 32.6767 108.234 31.5514C110.747 29.672 111.793 26.4431 109.628 23.8477C108.727 22.7547 107.463 22.016 106.269 21.2919C105.649 20.9173 102.905 19.1179 103.795 18.081L102.171 18.4373C104.156 19.3584 109.066 21.9017 106.533 24.7292C105.45 25.9427 104.437 24.2545 103.85 23.3838C102.895 21.9643 101.896 20.7282 100.322 19.941C97.3217 18.4427 93.6277 18.7538 90.7018 20.2793C87.2076 22.0921 84.7726 25.3406 82.4832 28.4334C81.8312 29.3073 82.4113 30.5828 83.3693 30.9029C87.7142 32.3565 92.047 33.8212 96.404 35.2638C100.019 36.4652 103.414 36.9163 107.032 35.4445C113.808 32.689 116.515 24.5921 113.364 18.1339C112.525 16.4188 109.933 17.4614 110.293 19.2711C111.381 24.77 112.48 30.2694 113.568 35.7568C114.404 35.1688 115.24 34.5809 116.076 33.9929C109.097 30.6059 102.788 25.9522 97.6037 20.1795C96.7652 19.2514 95.0594 17.521 95.8163 16.1079C96.5732 14.6948 99.804 16.481 100.84 16.8624C105.065 18.4265 109.301 19.9794 113.525 21.5435L113.266 18.5115C106.356 21.9323 99.4458 25.3647 92.536 28.7855C93.2535 29.5694 93.971 30.3534 94.6996 31.1494C97.6408 27.4489 100.594 23.7489 103.535 20.0484C102.536 19.8769 101.537 19.6939 100.538 19.5224C102.182 25.5204 103.825 31.53 105.47 37.528L108.301 36.0446C105.928 33.9722 103.542 31.9109 101.169 29.8386C100.456 29.2168 99.6032 29.1328 98.8358 29.7354C94.3772 33.2067 88.4461 34.6456 82.8931 33.5551C80.7822 33.1377 79.947 35.7973 81.8743 36.7042C86.2504 38.761 90.6261 40.8293 95.0023 42.8861L95.1433 39.6983C88.5215 41.3149 81.8998 42.9315 75.2781 44.5481C75.9476 45.1101 76.6286 45.6726 77.2981 46.2345C77.5579 39.3139 81.7707 33.031 88.0227 30.0903C89.2757 29.4976 89.1251 27.4079 87.7634 27.0583C79.0695 24.7643 70.3756 22.4702 61.6822 20.1646C59.9435 19.7058 58.5983 22.1228 60.2784 23.123C65.9497 26.5101 68.0021 34.5283 64.5 40.1829C63.7026 41.4669 64.8535 42.9181 66.2639 42.6912C71.4035 41.877 75.2484 37.8924 77.2692 33.2832C79.8821 27.3231 79.0375 20.5156 78.2844 14.2561C77.5728 14.9074 76.8733 15.5477 76.1616 16.199C81.3848 18.4669 85.6075 22.9472 87.5229 28.3091L89.2093 26.289C86.3564 26.1628 84.0554 24.0243 81.5483 22.8834C78.5878 21.5257 75.319 21.3811 72.1223 21.7026C69.2048 21.9902 66.1736 22.4926 63.3797 23.3875C61.1137 24.1205 58.8324 25.2 57.4238 27.2208C53.8402 32.3626 58.8695 37.9665 62.5899 41.2441C64.6947 43.1079 67.1904 44.769 70.1254 44.6095C72.8977 44.466 75.1272 42.7245 76.8046 40.6462C81.1643 35.2262 83.2336 27.6912 83.525 20.8414C82.572 21.1927 81.608 21.532 80.655 21.8833C85.8168 28.4188 90.9895 34.9664 96.1513 41.5019C96.7235 40.6014 97.3067 39.7129 97.8789 38.8124C91.178 37.5092 84.4766 36.2175 77.7872 34.9148C74.5515 34.2856 71.3058 33.6213 68.0565 33.0378C65.4962 32.5773 62.6473 32.3587 60.4344 33.9852C58.6636 35.2956 57.53 37.641 58.2555 39.8141C59.0317 42.1514 61.6002 43.214 63.9171 42.8999C66.4896 42.5623 68.6343 40.6435 70.5012 38.9902C72.5365 37.1938 74.4072 35.1935 76.0982 33.0694C79.9939 28.196 82.8608 22.5132 84.5386 16.5001L81.3125 15.9177C81.7605 27.2441 84.3248 38.3402 88.9122 48.704L90.4542 46.2841C79.0187 44.2275 67.8705 40.6445 57.3475 35.7466L57.2065 38.9345C62.5726 38.2344 67.9052 40.646 71.1416 44.9207C72.268 46.4055 74.1182 44.8671 73.9732 43.4373C73.6468 40.0898 73.3319 36.743 73.0055 33.3955C72.7519 30.7573 72.7892 27.8194 71.5656 25.3929C68.8949 20.1017 62.3251 22.1141 57.9243 23.4933C47.5509 26.7262 37.8455 31.8635 29.2975 38.5679C24.4419 42.3805 20.0504 46.6881 16.0805 51.4078C17.0664 51.8796 18.053 52.3399 19.0389 52.8117C21.4233 43.6473 25.1531 34.9359 30.1836 26.907C31.0183 25.5668 29.8029 24.2631 28.4198 24.3987C20.8762 25.1413 13.3447 25.8729 5.80105 26.6155C4.11554 26.7839 4.21002 29.3573 5.66004 29.8033C12.3041 31.8679 17.6329 37.2419 19.5347 43.9572C19.8653 45.1176 21.3202 45.7143 22.263 44.807C25.5624 41.6431 28.8502 38.4787 32.1495 35.3148C33.7688 33.7663 35.3332 32.1458 37.0077 30.6576C37.8389 29.9189 40.3849 28.0873 40.3536 30.3658C40.3293 31.9618 39.2554 33.4766 38.4228 34.7706C37.3906 36.3915 36.2455 37.9494 34.9894 39.3984C32.4285 42.3519 29.4444 44.9279 26.1459 47.0271L28.0291 49.7143C33.3816 44.3498 39.4631 39.7698 46.1602 36.1892C49.1233 34.6075 52.742 32.858 56.1057 34.2566C57.3443 34.7743 58.4354 35.7484 58.6644 37.1126C58.8679 38.2673 58.5329 39.5602 57.4758 40.1731L59.8574 41.2737C58.4272 35.1463 56.9856 29.0184 55.5554 22.8909C55.3997 22.2244 54.7338 21.5816 54.0151 21.6076C49.6921 21.752 44.8816 22.1874 42.1874 26.0608C39.8894 29.35 41.0339 33.3007 43.7659 35.8981C46.9868 38.9569 51.3338 40.8851 55.1484 43.0791C59.7983 45.7498 64.4476 48.432 69.086 51.1022C70.6321 51.9922 72.6315 49.9628 71.1992 48.5918C62.6052 40.3768 54.0232 32.1509 45.4292 23.9359C44.9951 24.8541 44.572 25.7844 44.1379 26.7026C52.0097 26.3911 59.8693 26.0907 67.741 25.7792L66.4187 23.2326C63.3042 29.0201 57.4892 32.281 51.7124 34.9419C44.4591 38.278 37.068 41.3304 29.7411 44.5013C28.1717 45.1841 28.8901 47.5189 30.4363 47.622C36.946 48.0141 43.1461 50.6955 47.8413 55.2198C48.8957 56.2386 51.2923 55.4303 50.6729 53.7364C47.042 43.7274 45.2872 33.1648 45.5267 22.5168C45.5615 20.9444 43.3429 20.0825 42.4795 21.5487C41.415 23.3765 39.1202 23.7147 37.2251 24.1748C35.131 24.684 33.0814 25.496 31.6088 27.1321C30.221 28.6793 29.6965 30.8549 30.7 32.7625C31.6072 34.4923 33.4688 35.3153 35.2779 35.7541C37.2472 36.2347 39.3246 36.3613 41.0674 37.5147C42.8322 38.6921 44.0798 40.5758 44.4855 42.6537C45.3681 47.0326 41.8136 50.9953 37.5887 51.5375C37.8304 52.6129 38.0837 53.6888 38.3255 54.7642C43.5406 53.0275 48.7552 51.3023 53.9704 49.5656C55.9435 48.9122 58.226 48.3304 59.5085 46.5471C60.7658 44.8089 60.671 42.5017 59.7233 40.6428C58.6687 38.5825 56.6549 37.2783 54.8007 36.0274C52.4968 34.4789 50.1818 32.9183 47.8779 31.3698C43.1801 28.211 38.4939 25.0526 33.7962 21.8938C33.8734 22.7651 33.9391 23.636 34.0163 24.5074C34.7491 23.6371 35.9723 23.9805 36.6647 24.8097C37.6973 26.0589 37.3617 28.1504 37.1236 29.6096C36.5545 33.0563 35.7875 36.5289 38.2259 39.4837C40.2906 41.9937 43.5308 42.7851 46.3678 44.0563C47.7067 44.6594 49.2221 45.4556 49.8905 46.8276C50.3253 47.7263 50.6113 49.3708 49.6325 50.045C50.3501 50.829 51.0676 51.6129 51.7962 52.409C55.5581 44.5438 59.32 36.6787 63.0704 28.813C63.7977 27.2828 61.9808 25.1888 60.56 26.6999C55.1806 32.4104 48.077 36.2855 40.3256 37.5397C36.8404 38.1031 32.6631 38.0919 30.2388 41.0977C28.2432 43.5671 28.1259 47.2652 30.768 49.28C31.4842 49.8325 32.5873 49.4878 33.0578 48.7911C38.8116 40.1113 40.5946 29.1034 37.822 19.0513C36.8745 19.5417 35.938 20.0443 34.9904 20.5347C38.1768 24.6335 41.3748 28.7329 44.5612 32.8318C45.382 33.8981 46.2384 34.9427 47.0472 36.0201C47.4842 36.6065 48.747 38.1437 48.0529 38.923C47.0788 40.0141 44.0851 38.8864 43.0211 38.6079C33.6052 36.1546 24.5448 32.4672 16.0778 27.6603C14.8695 26.9819 13.195 27.9494 13.5695 29.4241C15.5778 37.394 15.8688 45.7278 14.3084 53.7944C14.0548 55.0794 15.2846 56.5804 16.6512 55.7729C25.5994 50.4864 33.8012 44.0212 40.9958 36.5162C41.9427 35.5165 41.4565 33.6897 39.9539 33.6464C29.5747 33.3493 19.1954 33.0522 8.81561 32.7667C7.27841 32.7219 6.32104 35.0056 7.84762 35.8138C16.9861 40.6157 24.9792 47.2417 31.3917 55.3254C31.8258 54.4072 32.2489 53.477 32.683 52.5588C24.6843 52.0777 16.6966 51.6087 8.69788 51.1276C9.19854 51.8441 9.69869 52.5721 10.1993 53.2887C14.7341 43.3862 19.2684 33.4952 23.8032 23.5927C22.7927 23.6753 21.7817 23.7695 20.7712 23.8521C22.7994 27.4484 23.0662 31.881 21.2113 35.618L23.8249 35.398C20.5323 31.6069 15.683 28.9968 10.5591 29.7191C5.92426 30.3705 1.76543 33.8667 1.28673 38.6714C1.07671 40.8031 1.63694 43.0499 2.8434 44.816C3.41929 45.6631 4.1279 46.3889 4.97016 46.97C6.29579 47.8735 7.16834 47.5071 8.4736 46.7778C12.8752 44.3339 16.9133 41.2143 20.3837 37.5835C24.4004 33.375 27.6222 28.5644 30.0433 23.2785C30.9276 21.3387 27.766 20.3424 26.8942 22.2597L26.8103 22.3254Z" fill="#FFB700"/>
<path d="M68.2186 18.3934C75.3865 23.7909 82.566 29.1889 89.7339 34.5864C91.0107 35.5456 93.0208 33.7944 92.0978 32.4227C89.5123 28.6051 86.9269 24.7874 84.3524 20.9818C83.7986 20.1588 82.5806 19.6998 81.7684 20.5319C76.9908 25.4589 72.2022 30.3738 67.4246 35.3009C65.9454 36.8209 68.0193 39.1231 69.6545 37.7372C69.9792 37.4623 70.3158 37.1762 70.6404 36.9013C72.2636 35.5265 70.0336 33.0901 68.4104 34.4649C68.0858 34.7399 67.7492 35.0259 67.4246 35.3009L69.6545 37.7372C74.4322 32.8102 79.2208 27.8952 83.9984 22.9682L81.4144 22.5183C83.9999 26.336 86.5854 30.1537 89.1598 33.9593L91.5237 31.7956C84.3559 26.398 77.1765 21 70.0086 15.6025C68.3061 14.3236 66.5166 17.1029 68.2191 18.3818L68.2186 18.3934Z" fill="#FFB700"/>
<path d="M111.999 16.0244C118.475 25.5576 126.222 34.0706 135.086 41.4295C135.99 42.187 137.17 41.406 137.555 40.5435C140.084 34.9153 142.602 29.2749 145.131 23.6466C145.837 22.0693 143.575 20.8814 142.441 21.9191C137.473 26.4442 131.562 29.7819 125.103 31.6487C125.715 31.9304 126.328 32.2121 126.94 32.4938C124.932 27.9147 122.924 23.3356 120.917 18.745C120.133 19.4626 119.349 20.1802 118.553 20.9088C122.29 23.2845 126.687 25.6662 131.166 23.8275C134.95 22.2705 136.63 17.4958 133.976 14.1959C132.977 12.9597 131.313 13.9624 131.106 15.2378C129.967 22.1427 128.829 29.0476 127.69 35.9525L130.237 34.6301C124.451 30.1733 118.653 25.7043 112.867 21.2475L111.899 24.2946C117.618 23.9921 124.722 23.7739 127.953 29.4718C130.745 34.3864 130.605 40.4328 133.808 45.1921C134.362 46.0267 135.569 46.462 136.392 45.642C137.737 44.2896 137.996 42.3568 137.145 40.6527C136.243 38.8074 134.396 37.9272 132.455 37.5868C130.09 37.1581 127.626 37.1417 125.238 36.9666C122.642 36.7824 120.035 36.5861 117.44 36.4018L117.294 39.7052C122.264 39.844 127.234 39.9828 132.204 40.1101C135.672 40.2056 141.147 40.9686 141.683 36.178C141.877 34.4044 141.201 32.6733 140.555 31.0708C139.803 29.2321 138.863 27.4546 137.768 25.7976C135.553 22.4824 132.81 19.6298 129.568 17.3107C129.096 18.2967 128.635 19.2832 128.164 20.2691C132.308 21.5519 136.424 22.9375 140.597 24.1058C142.403 24.6138 144.336 24.8729 146.013 23.8361C147.381 22.994 148.157 21.4197 147.846 19.8204C147.195 16.4818 142.85 14.5074 140.182 13.0701C136.702 11.1802 133.03 9.68692 129.224 8.60432C128.127 8.28962 127.191 9.02364 127.062 10.1058C125.929 19.5106 124.795 28.9155 123.65 38.3314C124.366 37.8307 125.095 37.3306 125.811 36.8299C115.94 32.8868 106.058 28.9316 96.1875 24.9884L96.7931 27.7811C100.246 25.3299 103.7 22.8672 107.153 20.416L109.686 18.6186C110.366 18.1395 111.505 16.9863 112.386 16.9443C113.21 16.9112 113.806 17.8171 114.314 18.3604C115.099 19.2052 115.884 20.0384 116.679 20.8837C122.58 27.1973 128.481 33.4993 134.393 39.8134C135.067 40.5376 136.49 40.5543 137.007 39.5935C140.732 32.5599 144.445 25.5374 148.17 18.5039C148.688 17.5315 148.23 15.8563 146.848 15.9572C143.249 16.2147 140.18 18.6249 139.111 22.1074C137.962 25.8409 139.372 29.8149 141.874 32.6452C143.119 34.0543 145.437 32.4208 144.561 30.7619C142.659 27.1943 140.757 23.6268 138.866 20.0597C138.054 18.5425 135.931 19.1777 135.746 20.755C134.983 27.2599 137.043 33.8086 141.255 38.7976C141.827 37.8971 142.41 37.0087 142.982 36.1081C140.352 35.1354 137.517 34.8711 134.742 35.3271C133.378 35.556 132.028 35.9824 130.775 36.575C129.522 37.1677 128.251 38.1877 126.837 38.4955C125.271 38.8429 124.721 37.9274 124.129 36.6514C123.412 35.0805 122.694 33.5096 121.977 31.9386C120.5 28.7024 119.022 25.4776 117.545 22.2413C116.838 20.7056 114.517 21.3667 114.425 22.9366C113.92 31.4666 120.392 38.7312 128.896 39.3041C130.742 39.4321 131.284 36.586 129.478 36.0779C114.368 31.8104 99.2456 27.5424 84.1345 23.2864C82.34 22.7788 81.1455 25.191 82.7307 26.2448C91.1047 31.8461 99.4781 37.459 107.852 43.0603C108.024 42.061 108.207 41.0623 108.378 40.0631C106.613 40.471 104.848 40.8674 103.082 41.2754L104.565 44.1069C118.531 32.145 133.079 20.8685 148.172 10.3567C149.867 9.18183 148.578 6.41674 146.635 7.43023C137.798 12.0273 129.775 18.1069 122.995 25.3988C122.327 26.1214 122.209 27.4702 123.215 28.0124C129.986 31.668 136.756 35.3235 143.537 38.9912C145.097 39.8356 147.07 37.886 145.651 36.4808C143.2 34.0578 140.762 31.6239 138.312 29.2009C136.903 27.8077 134.982 29.3777 135.624 31.0841C136.909 34.4855 138.206 37.8758 139.49 41.2772C140.247 43.2665 143.163 41.7058 142.417 39.7401C141.132 36.3388 139.835 32.9484 138.551 29.5471C137.655 30.1787 136.759 30.8103 135.864 31.4303C138.314 33.8533 140.752 36.2873 143.203 38.7102L145.316 36.1998C138.546 32.5442 131.775 28.8886 124.994 25.221L125.214 27.8346C131.823 20.7319 139.549 14.8243 148.16 10.3562L146.623 7.42972C131.292 18.093 116.506 29.5094 102.335 41.6706C101.061 42.7599 102.241 44.8605 103.819 44.5021C105.584 44.0941 107.349 43.6977 109.115 43.2897C110.518 42.9699 110.822 41.0738 109.641 40.2925C101.267 34.6912 92.8935 29.0783 84.5195 23.477C84.0477 24.463 83.5875 25.4495 83.1157 26.4354C98.2262 30.7029 113.348 34.971 128.459 39.2269C128.658 38.1479 128.844 37.0798 129.042 36.0007C122.304 35.5407 117.338 29.8008 117.739 23.0832L114.619 23.7784C116.181 27.192 117.731 30.5936 119.293 34.0072C120.475 36.5939 121.461 40.7343 124.532 41.6687C127.638 42.6162 130.072 40.4324 132.749 39.3241C135.707 38.1009 138.991 38.1767 141.963 39.2688C143.58 39.8611 144.714 37.7818 143.691 36.5792C140.007 32.2154 138.393 26.5659 139.048 20.9126C138.008 21.1444 136.968 21.3761 135.928 21.6078C137.83 25.1754 139.732 28.743 141.623 32.31C142.519 31.6784 143.415 31.0468 144.31 30.4268C142.679 28.5724 141.576 26.0355 142.138 23.5374C142.614 21.4175 144.449 19.4387 146.69 19.2716L145.367 16.725C141.642 23.7585 137.929 30.781 134.204 37.8145C135.075 37.7374 135.946 37.6717 136.818 37.5946C130.132 30.4477 123.448 23.2778 116.75 16.142C115.424 14.7293 113.97 13.3341 111.859 13.7037C109.748 14.0732 108.125 15.7026 106.523 16.8469L94.5621 25.3678C93.4627 26.1524 94.144 27.7565 95.1677 28.1605C105.038 32.1037 114.92 36.0589 124.791 40.0021C125.86 40.4313 126.839 39.4909 126.952 38.5006C128.086 29.0958 129.219 19.6909 130.365 10.275L128.204 11.7765C130.992 12.571 133.737 13.5719 136.355 14.8334C138.848 16.0316 141.738 17.4093 143.771 19.3162C144.716 20.2028 144.935 21.2656 143.278 21.308C141.784 21.3461 140.073 20.5182 138.668 20.0857C135.506 19.1126 132.344 18.1279 129.181 17.1547C127.354 16.5879 126.262 19.0393 127.777 20.1132C130.413 22.0004 132.741 24.3138 134.591 26.9764C136.179 29.2686 138.18 32.4239 138.413 35.2811C138.565 37.0816 136.858 36.9482 135.517 36.9121C133.506 36.8578 131.506 36.8041 129.495 36.7499C125.484 36.6419 121.461 36.5334 117.451 36.4139C115.324 36.3545 115.182 39.5655 117.305 39.7172C120.834 39.9775 124.353 40.2257 127.883 40.486C129.336 40.5966 130.888 40.5611 132.307 40.9248C133.028 41.1071 135.179 42.1975 134.161 43.2288L136.745 43.6786C133.27 38.5139 133.675 31.727 130.035 26.6244C125.916 20.8525 118.483 20.6626 112.056 21.0148C110.397 21.1035 109.745 23.0189 111.088 24.062C116.874 28.5188 122.671 32.9878 128.457 37.4446C129.565 38.2922 130.827 37.237 131.004 36.1222C132.142 29.2173 133.281 22.3124 134.42 15.4075C133.467 15.7588 132.503 16.0981 131.55 16.4494C133.338 18.6695 130.459 20.9609 128.413 21.1713C125.437 21.4678 122.763 19.6715 120.377 18.1425C118.913 17.2098 117.372 18.8313 118.013 20.3062C120.021 24.8853 122.028 29.4643 124.036 34.055C124.309 34.692 125.205 35.0904 125.873 34.9C132.883 32.8724 139.302 29.3026 144.705 24.3801L142.015 22.6525C139.486 28.2807 136.969 33.9211 134.44 39.5493L136.909 38.6633C128.515 31.6955 121.099 23.5211 114.96 14.5004C113.775 12.7584 110.838 14.2834 112.033 16.0375L111.999 16.0244Z" fill="#FFB700"/>
<path d="M9.26184 34.9963C11.4826 40.256 13.7034 45.5157 15.9242 50.7755C16.7082 50.0579 17.4922 49.3404 18.2882 48.6118C16.4843 47.2705 14.6688 45.9288 12.8649 44.5876C11.2849 43.4183 9.49218 41.8229 7.36909 42.2035C5.37459 42.555 4.58726 44.395 4.08224 46.1317C3.45437 48.2912 2.83756 50.4628 2.22124 52.6228C1.60492 54.7828 4.61148 55.6217 5.37029 53.6416C7.94711 46.9276 11.5451 40.6754 15.9953 35.0396C14.9796 34.7169 13.9639 34.3942 12.9481 34.0716C12.33 38.6271 11.7125 43.171 11.0943 47.7265C10.8217 49.705 10.6337 51.8608 12.7407 52.8914C13.5334 53.2852 14.4433 53.3833 15.3252 53.3297C16.0795 53.2821 16.9932 53.0331 17.6311 53.5243C19.3211 54.8257 21.0995 52.0343 19.4206 50.7449C17.9655 49.6275 16.449 50.1622 14.7993 50.0429C14.0611 49.9871 14.1394 50.0484 14.2063 49.3223C14.2964 48.331 14.4674 47.3433 14.6032 46.3657C15.1527 42.3163 15.7016 38.2785 16.2511 34.2292C16.352 33.5161 15.7589 32.7955 15.1087 32.5816C14.3672 32.3405 13.6694 32.68 13.2039 33.2612C8.58173 39.1209 4.88963 45.6698 2.20866 52.6454L5.35771 53.6642C5.83706 51.9842 6.32848 50.2932 6.80784 48.6132C6.98558 47.9961 7.3018 45.5566 8.10387 45.4764C8.68496 45.4211 9.58431 46.2825 9.98785 46.5781C10.7167 47.108 11.4334 47.6489 12.1617 48.1903C13.6072 49.2611 15.0527 50.3319 16.4983 51.4027C17.9438 52.4734 19.4487 50.6305 18.8622 49.2389C16.6414 43.9792 14.4206 38.7195 12.1998 33.4598C11.8544 32.6344 10.7086 32.3754 9.96203 32.7706C9.12051 33.2194 8.91595 34.1825 9.27289 35.0084L9.26184 34.9963Z" fill="#FFB700"/>
</svg>
