<svg width="20" height="20" viewBox="0 0 20 20" fill="none" xmlns="http://www.w3.org/2000/svg">
<path d="M17.0866 3.20526C15.2882 1.41877 12.8978 0.435059 10.3544 0.435059C10.3542 0.435059 10.3536 0.435059 10.3535 0.435059C9.09556 0.435207 7.86969 0.677155 6.71018 1.15436C5.55052 1.63156 4.5116 2.32154 3.622 3.20526C1.8238 4.9916 0.833553 7.36673 0.833553 9.89305C0.833553 11.3996 1.19948 12.8969 1.89285 14.2309L0.292518 18.7725C0.179728 19.0929 0.259565 19.4411 0.501323 19.6811C0.670433 19.8492 0.893018 19.9385 1.12189 19.9385C1.22001 19.9385 1.31917 19.9221 1.41593 19.8885L5.98776 18.2989C7.3306 18.9877 8.83777 19.3512 10.3544 19.3512C12.8975 19.3512 15.2882 18.3673 17.0866 16.581C18.8848 14.7947 19.8752 12.4195 19.8752 9.8932C19.8752 7.36673 18.8849 4.9916 17.0866 3.20526ZM15.1835 13.5986L14.1509 14.6244C13.8404 14.9329 13.4126 15.0875 12.8948 15.0875C12.4261 15.0875 11.8837 14.9609 11.2874 14.707C10.1977 14.2431 8.99999 13.394 7.91508 12.3163C6.83016 11.2385 5.97547 10.0487 5.50843 8.96618C4.97055 7.71954 5.00005 6.70919 5.59157 6.12158L6.6242 5.09576C7.06218 4.66067 7.77488 4.66067 8.21286 5.09576L9.50373 6.37811C9.94186 6.8132 9.94186 7.52119 9.50373 7.95643L9.02471 8.43229C9.67299 9.6139 10.6355 10.5699 11.825 11.2139L12.304 10.7381C12.742 10.3028 13.4547 10.3028 13.8927 10.7381L15.1835 12.0204C15.3958 12.2311 15.5126 12.5115 15.5126 12.8095C15.5126 13.1076 15.3958 13.3878 15.1835 13.5986Z" fill="white"/>
</svg>
